<?xml version="1.0" encoding="UTF-8" standalone="no"?>
<!DOCTYPE svg PUBLIC "-//W3C//DTD SVG 1.1//EN"
 "http://www.w3.org/Graphics/SVG/1.1/DTD/svg11.dtd">
<!-- Generated by graphviz version 2.38.0 (20140413.2041)
 -->
<!-- Title: fpc_hcp_receive Pages: 1 -->
<svg width="344pt" height="28pt"
 viewBox="0.00 0.00 344.00 28.00" xmlns="http://www.w3.org/2000/svg" xmlns:xlink="http://www.w3.org/1999/xlink">
<g id="graph0" class="graph" transform="scale(1 1) rotate(0) translate(4 24)">
<title>fpc_hcp_receive</title>
<polygon fill="white" stroke="none" points="-4,4 -4,-24 340,-24 340,4 -4,4"/>
<!-- Node1 -->
<g id="node1" class="node"><title>Node1</title>
<polygon fill="#bfbfbf" stroke="black" points="0,-0.5 0,-19.5 88,-19.5 88,-0.5 0,-0.5"/>
<text text-anchor="middle" x="44" y="-7.5" font-family="Helvetica,sans-Serif" font-size="10.00">fpc_hcp_receive</text>
</g>
<!-- Node2 -->
<g id="node2" class="node"><title>Node2</title>
<g id="a_node2"><a xlink:href="fpc__hcp_8c.html#ac28e8941753ebcac47c1fc0a06813e61" target="_top" xlink:title="Handle receive chunks. ">
<polygon fill="white" stroke="black" points="124,-0.5 124,-19.5 209,-19.5 209,-0.5 124,-0.5"/>
<text text-anchor="middle" x="166.5" y="-7.5" font-family="Helvetica,sans-Serif" font-size="10.00">recieve_chunks</text>
</a>
</g>
</g>
<!-- Node1&#45;&gt;Node2 -->
<g id="edge1" class="edge"><title>Node1&#45;&gt;Node2</title>
<path fill="none" stroke="midnightblue" d="M88.1629,-10C96.4208,-10 105.145,-10 113.643,-10"/>
<polygon fill="midnightblue" stroke="midnightblue" points="113.849,-13.5001 123.849,-10 113.849,-6.5001 113.849,-13.5001"/>
</g>
<!-- Node3 -->
<g id="node3" class="node"><title>Node3</title>
<g id="a_node3"><a xlink:href="fpc__hcp_8c.html#a9b6886d13174fd6e88bd673ba09cca7d" target="_top" xlink:title="Add argument to packet. ">
<polygon fill="white" stroke="black" points="245,-0.5 245,-19.5 336,-19.5 336,-0.5 245,-0.5"/>
<text text-anchor="middle" x="290.5" y="-7.5" font-family="Helvetica,sans-Serif" font-size="10.00">fpc_hcp_arg_add</text>
</a>
</g>
</g>
<!-- Node2&#45;&gt;Node3 -->
<g id="edge2" class="edge"><title>Node2&#45;&gt;Node3</title>
<path fill="none" stroke="midnightblue" d="M209.144,-10C217.291,-10 225.951,-10 234.455,-10"/>
<polygon fill="midnightblue" stroke="midnightblue" points="234.706,-13.5001 244.706,-10 234.706,-6.5001 234.706,-13.5001"/>
</g>
</g>
</svg>
