<?xml version="1.0" encoding="UTF-8" standalone="no"?>
<!DOCTYPE svg PUBLIC "-//W3C//DTD SVG 1.1//EN"
 "http://www.w3.org/Graphics/SVG/1.1/DTD/svg11.dtd">
<!-- Generated by graphviz version 2.38.0 (20140413.2041)
 -->
<!-- Title: inc/fpc_hcp_common.h Pages: 1 -->
<svg width="342pt" height="196pt"
 viewBox="0.00 0.00 341.50 196.00" xmlns="http://www.w3.org/2000/svg" xmlns:xlink="http://www.w3.org/1999/xlink">
<g id="graph0" class="graph" transform="scale(1 1) rotate(0) translate(4 192)">
<title>inc/fpc_hcp_common.h</title>
<polygon fill="white" stroke="none" points="-4,4 -4,-192 337.5,-192 337.5,4 -4,4"/>
<!-- Node1 -->
<g id="node1" class="node"><title>Node1</title>
<polygon fill="#bfbfbf" stroke="black" points="177.5,-168.5 177.5,-187.5 295.5,-187.5 295.5,-168.5 177.5,-168.5"/>
<text text-anchor="middle" x="236.5" y="-175.5" font-family="Helvetica,sans-Serif" font-size="10.00">inc/fpc_hcp_common.h</text>
</g>
<!-- Node2 -->
<g id="node2" class="node"><title>Node2</title>
<g id="a_node2"><a xlink:href="fpc__com__chain_8h.html" target="_top" xlink:title="Communication chain type definitions. ">
<polygon fill="white" stroke="black" points="134,-112.5 134,-131.5 241,-131.5 241,-112.5 134,-112.5"/>
<text text-anchor="middle" x="187.5" y="-119.5" font-family="Helvetica,sans-Serif" font-size="10.00">inc/fpc_com_chain.h</text>
</a>
</g>
</g>
<!-- Node1&#45;&gt;Node2 -->
<g id="edge1" class="edge"><title>Node1&#45;&gt;Node2</title>
<path fill="none" stroke="midnightblue" d="M221.466,-160.431C212.878,-150.967 202.457,-139.483 195.441,-131.751"/>
<polygon fill="midnightblue" stroke="midnightblue" points="219.097,-163.029 228.409,-168.083 224.281,-158.325 219.097,-163.029"/>
</g>
<!-- Node7 -->
<g id="node7" class="node"><title>Node7</title>
<g id="a_node7"><a xlink:href="fpc__hcp_8h.html" target="_top" xlink:title="Host Communication Protocol interface. ">
<polygon fill="white" stroke="black" points="258,-56.5 258,-75.5 333,-75.5 333,-56.5 258,-56.5"/>
<text text-anchor="middle" x="295.5" y="-63.5" font-family="Helvetica,sans-Serif" font-size="10.00">inc/fpc_hcp.h</text>
</a>
</g>
</g>
<!-- Node1&#45;&gt;Node7 -->
<g id="edge9" class="edge"><title>Node1&#45;&gt;Node7</title>
<path fill="none" stroke="midnightblue" d="M245.983,-159.32C258.829,-135.37 281.26,-93.5484 290.892,-75.5914"/>
<polygon fill="midnightblue" stroke="midnightblue" points="242.772,-157.902 241.13,-168.368 248.941,-161.21 242.772,-157.902"/>
</g>
<!-- Node3 -->
<g id="node3" class="node"><title>Node3</title>
<g id="a_node3"><a xlink:href="fpc__com__link_8h.html" target="_top" xlink:title="Communication link interface. ">
<polygon fill="white" stroke="black" points="1.5,-56.5 1.5,-75.5 99.5,-75.5 99.5,-56.5 1.5,-56.5"/>
<text text-anchor="middle" x="50.5" y="-63.5" font-family="Helvetica,sans-Serif" font-size="10.00">inc/fpc_com_link.h</text>
</a>
</g>
</g>
<!-- Node2&#45;&gt;Node3 -->
<g id="edge2" class="edge"><title>Node2&#45;&gt;Node3</title>
<path fill="none" stroke="midnightblue" d="M156.477,-108.772C130.743,-98.6287 94.8141,-84.4669 72.1065,-75.5164"/>
<polygon fill="midnightblue" stroke="midnightblue" points="155.205,-112.033 165.792,-112.444 157.772,-105.52 155.205,-112.033"/>
</g>
<!-- Node6 -->
<g id="node6" class="node"><title>Node6</title>
<g id="a_node6"><a xlink:href="fpc__com__transport_8h.html" target="_top" xlink:title="Communication transport interface. ">
<polygon fill="white" stroke="black" points="117.5,-56.5 117.5,-75.5 239.5,-75.5 239.5,-56.5 117.5,-56.5"/>
<text text-anchor="middle" x="178.5" y="-63.5" font-family="Helvetica,sans-Serif" font-size="10.00">inc/fpc_com_transport.h</text>
</a>
</g>
</g>
<!-- Node2&#45;&gt;Node6 -->
<g id="edge5" class="edge"><title>Node2&#45;&gt;Node6</title>
<path fill="none" stroke="midnightblue" d="M184.35,-102.101C182.856,-93.1357 181.143,-82.8579 179.959,-75.7511"/>
<polygon fill="midnightblue" stroke="midnightblue" points="180.917,-102.794 186.014,-112.083 187.822,-101.644 180.917,-102.794"/>
</g>
<!-- Node2&#45;&gt;Node7 -->
<g id="edge7" class="edge"><title>Node2&#45;&gt;Node7</title>
<path fill="none" stroke="midnightblue" d="M214.048,-107.726C234.046,-97.7271 260.887,-84.3065 278.191,-75.6545"/>
<polygon fill="midnightblue" stroke="midnightblue" points="212.231,-104.721 204.852,-112.324 215.362,-110.982 212.231,-104.721"/>
</g>
<!-- Node4 -->
<g id="node4" class="node"><title>Node4</title>
<g id="a_node4"><a xlink:href="fpc__com__link_8c.html" target="_top" xlink:title="Communication link layer implementation. ">
<polygon fill="white" stroke="black" points="0,-0.5 0,-19.5 99,-19.5 99,-0.5 0,-0.5"/>
<text text-anchor="middle" x="49.5" y="-7.5" font-family="Helvetica,sans-Serif" font-size="10.00">src/fpc_com_link.c</text>
</a>
</g>
</g>
<!-- Node3&#45;&gt;Node4 -->
<g id="edge3" class="edge"><title>Node3&#45;&gt;Node4</title>
<path fill="none" stroke="midnightblue" d="M50.1445,-45.8045C49.9798,-36.9102 49.7922,-26.7798 49.6621,-19.7511"/>
<polygon fill="midnightblue" stroke="midnightblue" points="46.6502,-46.1495 50.3349,-56.083 53.649,-46.0199 46.6502,-46.1495"/>
</g>
<!-- Node5 -->
<g id="node5" class="node"><title>Node5</title>
<g id="a_node5"><a xlink:href="fpc__com__transport_8c.html" target="_top" xlink:title="Communication transport layer implementation. ">
<polygon fill="white" stroke="black" points="117.5,-0.5 117.5,-19.5 239.5,-19.5 239.5,-0.5 117.5,-0.5"/>
<text text-anchor="middle" x="178.5" y="-7.5" font-family="Helvetica,sans-Serif" font-size="10.00">src/fpc_com_transport.c</text>
</a>
</g>
</g>
<!-- Node3&#45;&gt;Node5 -->
<g id="edge4" class="edge"><title>Node3&#45;&gt;Node5</title>
<path fill="none" stroke="midnightblue" d="M80.1226,-52.503C104.119,-42.3795 137.284,-28.388 158.313,-19.5164"/>
<polygon fill="midnightblue" stroke="midnightblue" points="78.6352,-49.3317 70.782,-56.4435 81.3561,-55.7813 78.6352,-49.3317"/>
</g>
<!-- Node6&#45;&gt;Node5 -->
<g id="edge6" class="edge"><title>Node6&#45;&gt;Node5</title>
<path fill="none" stroke="midnightblue" d="M178.5,-45.8045C178.5,-36.9102 178.5,-26.7798 178.5,-19.7511"/>
<polygon fill="midnightblue" stroke="midnightblue" points="175,-46.083 178.5,-56.083 182,-46.083 175,-46.083"/>
</g>
<!-- Node8 -->
<g id="node8" class="node"><title>Node8</title>
<g id="a_node8"><a xlink:href="fpc__hcp_8c.html" target="_top" xlink:title="Host Communication Protocol implementation. ">
<polygon fill="white" stroke="black" points="257.5,-0.5 257.5,-19.5 333.5,-19.5 333.5,-0.5 257.5,-0.5"/>
<text text-anchor="middle" x="295.5" y="-7.5" font-family="Helvetica,sans-Serif" font-size="10.00">src/fpc_hcp.c</text>
</a>
</g>
</g>
<!-- Node7&#45;&gt;Node8 -->
<g id="edge8" class="edge"><title>Node7&#45;&gt;Node8</title>
<path fill="none" stroke="midnightblue" d="M295.5,-45.8045C295.5,-36.9102 295.5,-26.7798 295.5,-19.7511"/>
<polygon fill="midnightblue" stroke="midnightblue" points="292,-46.083 295.5,-56.083 299,-46.083 292,-46.083"/>
</g>
</g>
</svg>
