<?xml version="1.0" encoding="UTF-8" standalone="no"?>
<!DOCTYPE svg PUBLIC "-//W3C//DTD SVG 1.1//EN"
 "http://www.w3.org/Graphics/SVG/1.1/DTD/svg11.dtd">
<!-- Generated by graphviz version 2.38.0 (20140413.2041)
 -->
<!-- Title: inc/fpc_com_chain.h Pages: 1 -->
<svg width="354pt" height="140pt"
 viewBox="0.00 0.00 353.98 140.00" xmlns="http://www.w3.org/2000/svg" xmlns:xlink="http://www.w3.org/1999/xlink">
<g id="graph0" class="graph" transform="scale(1 1) rotate(0) translate(4 136)">
<title>inc/fpc_com_chain.h</title>
<polygon fill="white" stroke="none" points="-4,4 -4,-136 349.98,-136 349.98,4 -4,4"/>
<!-- Node1 -->
<g id="node1" class="node"><title>Node1</title>
<polygon fill="#bfbfbf" stroke="black" points="63.4799,-112.5 63.4799,-131.5 170.48,-131.5 170.48,-112.5 63.4799,-112.5"/>
<text text-anchor="middle" x="116.98" y="-119.5" font-family="Helvetica,sans-Serif" font-size="10.00">inc/fpc_com_chain.h</text>
</g>
<!-- Node2 -->
<g id="node2" class="node"><title>Node2</title>
<polygon fill="white" stroke="#bfbfbf" points="92.4799,-0.5 92.4799,-19.5 141.48,-19.5 141.48,-0.5 92.4799,-0.5"/>
<text text-anchor="middle" x="116.98" y="-7.5" font-family="Helvetica,sans-Serif" font-size="10.00">stdint.h</text>
</g>
<!-- Node1&#45;&gt;Node2 -->
<g id="edge1" class="edge"><title>Node1&#45;&gt;Node2</title>
<path fill="none" stroke="midnightblue" d="M63.3021,-112.844C41.4095,-106.587 18.1815,-95.5315 4.9799,-76 -16.8395,-43.7186 42.2178,-25.3548 82.645,-16.8597"/>
<polygon fill="midnightblue" stroke="midnightblue" points="83.3345,-20.2912 92.4611,-14.9101 81.9708,-13.4253 83.3345,-20.2912"/>
</g>
<!-- Node3 -->
<g id="node3" class="node"><title>Node3</title>
<g id="a_node3"><a xlink:href="fpc__com__result_8h.html" target="_top" xlink:title="Communication result type definitions. ">
<polygon fill="white" stroke="black" points="13.9799,-56.5 13.9799,-75.5 105.98,-75.5 105.98,-56.5 13.9799,-56.5"/>
<text text-anchor="middle" x="59.9799" y="-63.5" font-family="Helvetica,sans-Serif" font-size="10.00">fpc_com_result.h</text>
</a>
</g>
</g>
<!-- Node1&#45;&gt;Node3 -->
<g id="edge2" class="edge"><title>Node1&#45;&gt;Node3</title>
<path fill="none" stroke="midnightblue" d="M107.822,-112.324C99.4784,-104.42 86.9475,-92.5482 76.803,-82.9377"/>
<polygon fill="midnightblue" stroke="midnightblue" points="78.9712,-80.1705 69.3046,-75.8339 74.157,-85.2522 78.9712,-80.1705"/>
</g>
<!-- Node4 -->
<g id="node4" class="node"><title>Node4</title>
<g id="a_node4"><a xlink:href="fpc__hcp__common_8h.html" target="_top" xlink:title="Host Communication Protocol common type definitions. ">
<polygon fill="white" stroke="black" points="243.98,-56.5 243.98,-75.5 345.98,-75.5 345.98,-56.5 243.98,-56.5"/>
<text text-anchor="middle" x="294.98" y="-63.5" font-family="Helvetica,sans-Serif" font-size="10.00">fpc_hcp_common.h</text>
</a>
</g>
</g>
<!-- Node1&#45;&gt;Node4 -->
<g id="edge4" class="edge"><title>Node1&#45;&gt;Node4</title>
<path fill="none" stroke="midnightblue" d="M145.185,-112.444C175.39,-103.28 223.491,-88.6876 257.009,-78.5192"/>
<polygon fill="midnightblue" stroke="midnightblue" points="258.354,-81.7688 266.907,-75.5164 256.322,-75.0703 258.354,-81.7688"/>
</g>
<!-- Node6 -->
<g id="node6" class="node"><title>Node6</title>
<g id="a_node6"><a xlink:href="fpc__com__packets_8h.html" target="_top" xlink:title="Communication packet type definitions. ">
<polygon fill="white" stroke="black" points="123.98,-56.5 123.98,-75.5 225.98,-75.5 225.98,-56.5 123.98,-56.5"/>
<text text-anchor="middle" x="174.98" y="-63.5" font-family="Helvetica,sans-Serif" font-size="10.00">fpc_com_packets.h</text>
</a>
</g>
</g>
<!-- Node1&#45;&gt;Node6 -->
<g id="edge7" class="edge"><title>Node1&#45;&gt;Node6</title>
<path fill="none" stroke="midnightblue" d="M126.299,-112.324C134.872,-104.341 147.792,-92.3128 158.168,-82.6529"/>
<polygon fill="midnightblue" stroke="midnightblue" points="160.558,-85.2098 165.492,-75.8339 155.788,-80.0865 160.558,-85.2098"/>
</g>
<!-- Node3&#45;&gt;Node2 -->
<g id="edge3" class="edge"><title>Node3&#45;&gt;Node2</title>
<path fill="none" stroke="midnightblue" d="M69.1379,-56.324C77.4814,-48.4196 90.0123,-36.5482 100.157,-26.9377"/>
<polygon fill="midnightblue" stroke="midnightblue" points="102.803,-29.2522 107.655,-19.8339 97.9886,-24.1705 102.803,-29.2522"/>
</g>
<!-- Node4&#45;&gt;Node2 -->
<g id="edge5" class="edge"><title>Node4&#45;&gt;Node2</title>
<path fill="none" stroke="midnightblue" d="M266.775,-56.4435C235.504,-46.9567 185.051,-31.6507 151.458,-21.4595"/>
<polygon fill="midnightblue" stroke="midnightblue" points="152.199,-18.0269 141.613,-18.473 150.166,-24.7254 152.199,-18.0269"/>
</g>
<!-- Node5 -->
<g id="node5" class="node"><title>Node5</title>
<polygon fill="white" stroke="#bfbfbf" points="266.98,-0.5 266.98,-19.5 322.98,-19.5 322.98,-0.5 266.98,-0.5"/>
<text text-anchor="middle" x="294.98" y="-7.5" font-family="Helvetica,sans-Serif" font-size="10.00">stdbool.h</text>
</g>
<!-- Node4&#45;&gt;Node5 -->
<g id="edge6" class="edge"><title>Node4&#45;&gt;Node5</title>
<path fill="none" stroke="midnightblue" d="M294.98,-56.083C294.98,-49.0059 294.98,-38.8611 294.98,-29.9865"/>
<polygon fill="midnightblue" stroke="midnightblue" points="298.48,-29.751 294.98,-19.7511 291.48,-29.7511 298.48,-29.751"/>
</g>
<!-- Node6&#45;&gt;Node2 -->
<g id="edge8" class="edge"><title>Node6&#45;&gt;Node2</title>
<path fill="none" stroke="midnightblue" d="M165.661,-56.324C157.087,-48.3414 144.168,-36.3128 133.792,-26.6529"/>
<polygon fill="midnightblue" stroke="midnightblue" points="136.172,-24.0865 126.468,-19.8339 131.402,-29.2098 136.172,-24.0865"/>
</g>
</g>
</svg>
