<?xml version="1.0" encoding="UTF-8" standalone="no"?>
<!DOCTYPE svg PUBLIC "-//W3C//DTD SVG 1.1//EN"
 "http://www.w3.org/Graphics/SVG/1.1/DTD/svg11.dtd">
<!-- Generated by graphviz version 2.38.0 (20140413.2041)
 -->
<!-- Title: inc/fpc_com_result.h Pages: 1 -->
<svg width="342pt" height="196pt"
 viewBox="0.00 0.00 341.50 196.00" xmlns="http://www.w3.org/2000/svg" xmlns:xlink="http://www.w3.org/1999/xlink">
<g id="graph0" class="graph" transform="scale(1 1) rotate(0) translate(4 192)">
<title>inc/fpc_com_result.h</title>
<polygon fill="white" stroke="none" points="-4,4 -4,-192 337.5,-192 337.5,4 -4,4"/>
<!-- Node1 -->
<g id="node1" class="node"><title>Node1</title>
<polygon fill="#bfbfbf" stroke="black" points="66,-168.5 66,-187.5 173,-187.5 173,-168.5 66,-168.5"/>
<text text-anchor="middle" x="119.5" y="-175.5" font-family="Helvetica,sans-Serif" font-size="10.00">inc/fpc_com_result.h</text>
</g>
<!-- Node2 -->
<g id="node2" class="node"><title>Node2</title>
<g id="a_node2"><a xlink:href="fpc__com__chain_8h.html" target="_top" xlink:title="Communication chain type definitions. ">
<polygon fill="white" stroke="black" points="113,-112.5 113,-131.5 220,-131.5 220,-112.5 113,-112.5"/>
<text text-anchor="middle" x="166.5" y="-119.5" font-family="Helvetica,sans-Serif" font-size="10.00">inc/fpc_com_chain.h</text>
</a>
</g>
</g>
<!-- Node1&#45;&gt;Node2 -->
<g id="edge1" class="edge"><title>Node1&#45;&gt;Node2</title>
<path fill="none" stroke="midnightblue" d="M133.921,-160.431C142.158,-150.967 152.154,-139.483 158.883,-131.751"/>
<polygon fill="midnightblue" stroke="midnightblue" points="131.186,-158.242 127.261,-168.083 136.466,-162.838 131.186,-158.242"/>
</g>
<!-- Node3 -->
<g id="node3" class="node"><title>Node3</title>
<g id="a_node3"><a xlink:href="fpc__com__link_8h.html" target="_top" xlink:title="Communication link interface. ">
<polygon fill="white" stroke="black" points="1.5,-56.5 1.5,-75.5 99.5,-75.5 99.5,-56.5 1.5,-56.5"/>
<text text-anchor="middle" x="50.5" y="-63.5" font-family="Helvetica,sans-Serif" font-size="10.00">inc/fpc_com_link.h</text>
</a>
</g>
</g>
<!-- Node1&#45;&gt;Node3 -->
<g id="edge9" class="edge"><title>Node1&#45;&gt;Node3</title>
<path fill="none" stroke="midnightblue" d="M108.61,-159.64C93.621,-135.744 67.2034,-93.6286 55.8892,-75.5914"/>
<polygon fill="midnightblue" stroke="midnightblue" points="105.807,-161.757 114.086,-168.368 111.737,-158.037 105.807,-161.757"/>
</g>
<!-- Node2&#45;&gt;Node3 -->
<g id="edge2" class="edge"><title>Node2&#45;&gt;Node3</title>
<path fill="none" stroke="midnightblue" d="M138.78,-108.096C117.108,-98.0073 87.5979,-84.2697 68.7946,-75.5164"/>
<polygon fill="midnightblue" stroke="midnightblue" points="137.577,-111.396 148.119,-112.444 140.531,-105.05 137.577,-111.396"/>
</g>
<!-- Node6 -->
<g id="node6" class="node"><title>Node6</title>
<g id="a_node6"><a xlink:href="fpc__com__transport_8h.html" target="_top" xlink:title="Communication transport interface. ">
<polygon fill="white" stroke="black" points="117.5,-56.5 117.5,-75.5 239.5,-75.5 239.5,-56.5 117.5,-56.5"/>
<text text-anchor="middle" x="178.5" y="-63.5" font-family="Helvetica,sans-Serif" font-size="10.00">inc/fpc_com_transport.h</text>
</a>
</g>
</g>
<!-- Node2&#45;&gt;Node6 -->
<g id="edge5" class="edge"><title>Node2&#45;&gt;Node6</title>
<path fill="none" stroke="midnightblue" d="M170.7,-102.101C172.692,-93.1357 174.976,-82.8579 176.555,-75.7511"/>
<polygon fill="midnightblue" stroke="midnightblue" points="167.234,-101.562 168.482,-112.083 174.068,-103.08 167.234,-101.562"/>
</g>
<!-- Node7 -->
<g id="node7" class="node"><title>Node7</title>
<g id="a_node7"><a xlink:href="fpc__hcp_8h.html" target="_top" xlink:title="Host Communication Protocol interface. ">
<polygon fill="white" stroke="black" points="258,-56.5 258,-75.5 333,-75.5 333,-56.5 258,-56.5"/>
<text text-anchor="middle" x="295.5" y="-63.5" font-family="Helvetica,sans-Serif" font-size="10.00">inc/fpc_hcp.h</text>
</a>
</g>
</g>
<!-- Node2&#45;&gt;Node7 -->
<g id="edge7" class="edge"><title>Node2&#45;&gt;Node7</title>
<path fill="none" stroke="midnightblue" d="M196.354,-108.503C220.538,-98.3795 253.962,-84.388 275.155,-75.5164"/>
<polygon fill="midnightblue" stroke="midnightblue" points="194.813,-105.354 186.94,-112.444 197.516,-111.811 194.813,-105.354"/>
</g>
<!-- Node4 -->
<g id="node4" class="node"><title>Node4</title>
<g id="a_node4"><a xlink:href="fpc__com__link_8c.html" target="_top" xlink:title="Communication link layer implementation. ">
<polygon fill="white" stroke="black" points="0,-0.5 0,-19.5 99,-19.5 99,-0.5 0,-0.5"/>
<text text-anchor="middle" x="49.5" y="-7.5" font-family="Helvetica,sans-Serif" font-size="10.00">src/fpc_com_link.c</text>
</a>
</g>
</g>
<!-- Node3&#45;&gt;Node4 -->
<g id="edge3" class="edge"><title>Node3&#45;&gt;Node4</title>
<path fill="none" stroke="midnightblue" d="M50.1445,-45.8045C49.9798,-36.9102 49.7922,-26.7798 49.6621,-19.7511"/>
<polygon fill="midnightblue" stroke="midnightblue" points="46.6502,-46.1495 50.3349,-56.083 53.649,-46.0199 46.6502,-46.1495"/>
</g>
<!-- Node5 -->
<g id="node5" class="node"><title>Node5</title>
<g id="a_node5"><a xlink:href="fpc__com__transport_8c.html" target="_top" xlink:title="Communication transport layer implementation. ">
<polygon fill="white" stroke="black" points="117.5,-0.5 117.5,-19.5 239.5,-19.5 239.5,-0.5 117.5,-0.5"/>
<text text-anchor="middle" x="178.5" y="-7.5" font-family="Helvetica,sans-Serif" font-size="10.00">src/fpc_com_transport.c</text>
</a>
</g>
</g>
<!-- Node3&#45;&gt;Node5 -->
<g id="edge4" class="edge"><title>Node3&#45;&gt;Node5</title>
<path fill="none" stroke="midnightblue" d="M80.1226,-52.503C104.119,-42.3795 137.284,-28.388 158.313,-19.5164"/>
<polygon fill="midnightblue" stroke="midnightblue" points="78.6352,-49.3317 70.782,-56.4435 81.3561,-55.7813 78.6352,-49.3317"/>
</g>
<!-- Node6&#45;&gt;Node5 -->
<g id="edge6" class="edge"><title>Node6&#45;&gt;Node5</title>
<path fill="none" stroke="midnightblue" d="M178.5,-45.8045C178.5,-36.9102 178.5,-26.7798 178.5,-19.7511"/>
<polygon fill="midnightblue" stroke="midnightblue" points="175,-46.083 178.5,-56.083 182,-46.083 175,-46.083"/>
</g>
<!-- Node8 -->
<g id="node8" class="node"><title>Node8</title>
<g id="a_node8"><a xlink:href="fpc__hcp_8c.html" target="_top" xlink:title="Host Communication Protocol implementation. ">
<polygon fill="white" stroke="black" points="257.5,-0.5 257.5,-19.5 333.5,-19.5 333.5,-0.5 257.5,-0.5"/>
<text text-anchor="middle" x="295.5" y="-7.5" font-family="Helvetica,sans-Serif" font-size="10.00">src/fpc_hcp.c</text>
</a>
</g>
</g>
<!-- Node7&#45;&gt;Node8 -->
<g id="edge8" class="edge"><title>Node7&#45;&gt;Node8</title>
<path fill="none" stroke="midnightblue" d="M295.5,-45.8045C295.5,-36.9102 295.5,-26.7798 295.5,-19.7511"/>
<polygon fill="midnightblue" stroke="midnightblue" points="292,-46.083 295.5,-56.083 299,-46.083 292,-46.083"/>
</g>
</g>
</svg>
