<?xml version="1.0" encoding="UTF-8" standalone="no"?>
<!DOCTYPE svg PUBLIC "-//W3C//DTD SVG 1.1//EN"
 "http://www.w3.org/Graphics/SVG/1.1/DTD/svg11.dtd">
<!-- Generated by graphviz version 2.38.0 (20140413.2041)
 -->
<!-- Title: src/fpc_com_link.c Pages: 1 -->
<svg width="413pt" height="252pt"
 viewBox="0.00 0.00 412.65 252.00" xmlns="http://www.w3.org/2000/svg" xmlns:xlink="http://www.w3.org/1999/xlink">
<g id="graph0" class="graph" transform="scale(1 1) rotate(0) translate(4 248)">
<title>src/fpc_com_link.c</title>
<polygon fill="white" stroke="none" points="-4,4 -4,-248 408.652,-248 408.652,4 -4,4"/>
<!-- Node1 -->
<g id="node1" class="node"><title>Node1</title>
<polygon fill="#bfbfbf" stroke="black" points="140.5,-224.5 140.5,-243.5 239.5,-243.5 239.5,-224.5 140.5,-224.5"/>
<text text-anchor="middle" x="190" y="-231.5" font-family="Helvetica,sans-Serif" font-size="10.00">src/fpc_com_link.c</text>
</g>
<!-- Node2 -->
<g id="node2" class="node"><title>Node2</title>
<polygon fill="white" stroke="#bfbfbf" points="98.5,-168.5 98.5,-187.5 147.5,-187.5 147.5,-168.5 98.5,-168.5"/>
<text text-anchor="middle" x="123" y="-175.5" font-family="Helvetica,sans-Serif" font-size="10.00">string.h</text>
</g>
<!-- Node1&#45;&gt;Node2 -->
<g id="edge1" class="edge"><title>Node1&#45;&gt;Node2</title>
<path fill="none" stroke="midnightblue" d="M179.235,-224.324C169.234,-216.263 154.113,-204.077 142.07,-194.369"/>
<polygon fill="midnightblue" stroke="midnightblue" points="143.943,-191.384 133.961,-187.834 139.55,-196.834 143.943,-191.384"/>
</g>
<!-- Node3 -->
<g id="node3" class="node"><title>Node3</title>
<polygon fill="white" stroke="#bfbfbf" points="166,-168.5 166,-187.5 214,-187.5 214,-168.5 166,-168.5"/>
<text text-anchor="middle" x="190" y="-175.5" font-family="Helvetica,sans-Serif" font-size="10.00">stdlib.h</text>
</g>
<!-- Node1&#45;&gt;Node3 -->
<g id="edge2" class="edge"><title>Node1&#45;&gt;Node3</title>
<path fill="none" stroke="midnightblue" d="M190,-224.083C190,-217.006 190,-206.861 190,-197.986"/>
<polygon fill="midnightblue" stroke="midnightblue" points="193.5,-197.751 190,-187.751 186.5,-197.751 193.5,-197.751"/>
</g>
<!-- Node4 -->
<g id="node4" class="node"><title>Node4</title>
<g id="a_node4"><a xlink:href="fpc__com__link_8h.html" target="_top" xlink:title="Communication link interface. ">
<polygon fill="white" stroke="black" points="232.5,-168.5 232.5,-187.5 315.5,-187.5 315.5,-168.5 232.5,-168.5"/>
<text text-anchor="middle" x="274" y="-175.5" font-family="Helvetica,sans-Serif" font-size="10.00">fpc_com_link.h</text>
</a>
</g>
</g>
<!-- Node1&#45;&gt;Node4 -->
<g id="edge3" class="edge"><title>Node1&#45;&gt;Node4</title>
<path fill="none" stroke="midnightblue" d="M203.496,-224.324C216.6,-215.9 236.712,-202.971 252.107,-193.074"/>
<polygon fill="midnightblue" stroke="midnightblue" points="254.018,-196.006 260.537,-187.655 250.233,-190.118 254.018,-196.006"/>
</g>
<!-- Node5 -->
<g id="node5" class="node"><title>Node5</title>
<polygon fill="white" stroke="#bfbfbf" points="0,-0.5 0,-19.5 56,-19.5 56,-0.5 0,-0.5"/>
<text text-anchor="middle" x="28" y="-7.5" font-family="Helvetica,sans-Serif" font-size="10.00">stdbool.h</text>
</g>
<!-- Node4&#45;&gt;Node5 -->
<g id="edge4" class="edge"><title>Node4&#45;&gt;Node5</title>
<path fill="none" stroke="midnightblue" d="M237.227,-168.474C170.736,-152.232 34.8958,-114.982 8,-76 -1.91522,-61.6293 6.29763,-42.1725 15.004,-28.3004"/>
<polygon fill="midnightblue" stroke="midnightblue" points="18.1201,-29.9454 20.8937,-19.7201 12.3488,-25.984 18.1201,-29.9454"/>
</g>
<!-- Node6 -->
<g id="node6" class="node"><title>Node6</title>
<polygon fill="white" stroke="#bfbfbf" points="201.5,-0.5 201.5,-19.5 250.5,-19.5 250.5,-0.5 201.5,-0.5"/>
<text text-anchor="middle" x="226" y="-7.5" font-family="Helvetica,sans-Serif" font-size="10.00">stdint.h</text>
</g>
<!-- Node4&#45;&gt;Node6 -->
<g id="edge5" class="edge"><title>Node4&#45;&gt;Node6</title>
<path fill="none" stroke="midnightblue" d="M295.497,-168.389C339.344,-149.592 432.028,-102.806 396,-56 379.622,-34.7223 305.492,-21.4395 260.705,-15.2105"/>
<polygon fill="midnightblue" stroke="midnightblue" points="260.921,-11.7082 250.544,-13.8479 259.99,-18.646 260.921,-11.7082"/>
</g>
<!-- Node7 -->
<g id="node7" class="node"><title>Node7</title>
<g id="a_node7"><a xlink:href="fpc__com__result_8h.html" target="_top" xlink:title="Communication result type definitions. ">
<polygon fill="white" stroke="black" points="295,-56.5 295,-75.5 387,-75.5 387,-56.5 295,-56.5"/>
<text text-anchor="middle" x="341" y="-63.5" font-family="Helvetica,sans-Serif" font-size="10.00">fpc_com_result.h</text>
</a>
</g>
</g>
<!-- Node4&#45;&gt;Node7 -->
<g id="edge6" class="edge"><title>Node4&#45;&gt;Node7</title>
<path fill="none" stroke="midnightblue" d="M279.257,-168.368C290.265,-150.296 315.92,-108.176 330.458,-84.3074"/>
<polygon fill="midnightblue" stroke="midnightblue" points="333.554,-85.9526 335.767,-75.5914 327.576,-82.3112 333.554,-85.9526"/>
</g>
<!-- Node8 -->
<g id="node8" class="node"><title>Node8</title>
<g id="a_node8"><a xlink:href="fpc__com__chain_8h.html" target="_top" xlink:title="Communication chain type definitions. ">
<polygon fill="white" stroke="black" points="180.5,-112.5 180.5,-131.5 271.5,-131.5 271.5,-112.5 180.5,-112.5"/>
<text text-anchor="middle" x="226" y="-119.5" font-family="Helvetica,sans-Serif" font-size="10.00">fpc_com_chain.h</text>
</a>
</g>
</g>
<!-- Node4&#45;&gt;Node8 -->
<g id="edge8" class="edge"><title>Node4&#45;&gt;Node8</title>
<path fill="none" stroke="midnightblue" d="M266.074,-168.083C259.154,-160.298 248.935,-148.801 240.548,-139.367"/>
<polygon fill="midnightblue" stroke="midnightblue" points="243.038,-136.9 233.779,-131.751 237.806,-141.55 243.038,-136.9"/>
</g>
<!-- Node7&#45;&gt;Node6 -->
<g id="edge7" class="edge"><title>Node7&#45;&gt;Node6</title>
<path fill="none" stroke="midnightblue" d="M322.778,-56.4435C304.104,-47.6751 274.844,-33.9355 253.383,-23.8579"/>
<polygon fill="midnightblue" stroke="midnightblue" points="254.676,-20.5988 244.137,-19.5164 251.701,-26.935 254.676,-20.5988"/>
</g>
<!-- Node8&#45;&gt;Node6 -->
<g id="edge9" class="edge"><title>Node8&#45;&gt;Node6</title>
<path fill="none" stroke="midnightblue" d="M206.704,-112.48C192.571,-105.081 174.443,-92.887 166,-76 155.65,-55.2997 178.277,-36.4462 198.643,-24.4384"/>
<polygon fill="midnightblue" stroke="midnightblue" points="200.371,-27.4821 207.422,-19.5735 196.978,-21.3594 200.371,-27.4821"/>
</g>
<!-- Node8&#45;&gt;Node7 -->
<g id="edge10" class="edge"><title>Node8&#45;&gt;Node7</title>
<path fill="none" stroke="midnightblue" d="M244.222,-112.444C262.896,-103.675 292.156,-89.9355 313.617,-79.8579"/>
<polygon fill="midnightblue" stroke="midnightblue" points="315.299,-82.935 322.863,-75.5164 312.324,-76.5988 315.299,-82.935"/>
</g>
<!-- Node9 -->
<g id="node9" class="node"><title>Node9</title>
<g id="a_node9"><a xlink:href="fpc__hcp__common_8h.html" target="_top" xlink:title="Host Communication Protocol common type definitions. ">
<polygon fill="white" stroke="black" points="17,-56.5 17,-75.5 119,-75.5 119,-56.5 17,-56.5"/>
<text text-anchor="middle" x="68" y="-63.5" font-family="Helvetica,sans-Serif" font-size="10.00">fpc_hcp_common.h</text>
</a>
</g>
</g>
<!-- Node8&#45;&gt;Node9 -->
<g id="edge11" class="edge"><title>Node8&#45;&gt;Node9</title>
<path fill="none" stroke="midnightblue" d="M200.964,-112.444C174.384,-103.359 132.191,-88.9388 102.477,-78.7831"/>
<polygon fill="midnightblue" stroke="midnightblue" points="103.513,-75.4386 92.9184,-75.5164 101.249,-82.0625 103.513,-75.4386"/>
</g>
<!-- Node10 -->
<g id="node10" class="node"><title>Node10</title>
<g id="a_node10"><a xlink:href="fpc__com__packets_8h.html" target="_top" xlink:title="Communication packet type definitions. ">
<polygon fill="white" stroke="black" points="175,-56.5 175,-75.5 277,-75.5 277,-56.5 175,-56.5"/>
<text text-anchor="middle" x="226" y="-63.5" font-family="Helvetica,sans-Serif" font-size="10.00">fpc_com_packets.h</text>
</a>
</g>
</g>
<!-- Node8&#45;&gt;Node10 -->
<g id="edge14" class="edge"><title>Node8&#45;&gt;Node10</title>
<path fill="none" stroke="midnightblue" d="M226,-112.083C226,-105.006 226,-94.8611 226,-85.9865"/>
<polygon fill="midnightblue" stroke="midnightblue" points="229.5,-85.751 226,-75.7511 222.5,-85.7511 229.5,-85.751"/>
</g>
<!-- Node9&#45;&gt;Node5 -->
<g id="edge13" class="edge"><title>Node9&#45;&gt;Node5</title>
<path fill="none" stroke="midnightblue" d="M61.3948,-56.083C55.7448,-48.4554 47.4552,-37.2645 40.5488,-27.9408"/>
<polygon fill="midnightblue" stroke="midnightblue" points="43.2471,-25.7034 34.4823,-19.7511 37.6221,-29.87 43.2471,-25.7034"/>
</g>
<!-- Node9&#45;&gt;Node6 -->
<g id="edge12" class="edge"><title>Node9&#45;&gt;Node6</title>
<path fill="none" stroke="midnightblue" d="M93.0356,-56.4435C119.694,-47.3324 162.057,-32.8539 191.785,-22.6936"/>
<polygon fill="midnightblue" stroke="midnightblue" points="193.011,-25.9736 201.342,-19.4275 190.747,-19.3497 193.011,-25.9736"/>
</g>
<!-- Node10&#45;&gt;Node6 -->
<g id="edge15" class="edge"><title>Node10&#45;&gt;Node6</title>
<path fill="none" stroke="midnightblue" d="M226,-56.083C226,-49.0059 226,-38.8611 226,-29.9865"/>
<polygon fill="midnightblue" stroke="midnightblue" points="229.5,-29.751 226,-19.7511 222.5,-29.7511 229.5,-29.751"/>
</g>
</g>
</svg>
