<?xml version="1.0" encoding="UTF-8" standalone="no"?>
<!DOCTYPE svg PUBLIC "-//W3C//DTD SVG 1.1//EN"
 "http://www.w3.org/Graphics/SVG/1.1/DTD/svg11.dtd">
<!-- Generated by graphviz version 2.38.0 (20140413.2041)
 -->
<!-- Title: src/fpc_com_transport.c Pages: 1 -->
<svg width="452pt" height="252pt"
 viewBox="0.00 0.00 452.00 252.00" xmlns="http://www.w3.org/2000/svg" xmlns:xlink="http://www.w3.org/1999/xlink">
<g id="graph0" class="graph" transform="scale(1 1) rotate(0) translate(4 248)">
<title>src/fpc_com_transport.c</title>
<polygon fill="white" stroke="none" points="-4,4 -4,-248 448,-248 448,4 -4,4"/>
<!-- Node1 -->
<g id="node1" class="node"><title>Node1</title>
<polygon fill="#bfbfbf" stroke="black" points="77,-224.5 77,-243.5 199,-243.5 199,-224.5 77,-224.5"/>
<text text-anchor="middle" x="138" y="-231.5" font-family="Helvetica,sans-Serif" font-size="10.00">src/fpc_com_transport.c</text>
</g>
<!-- Node2 -->
<g id="node2" class="node"><title>Node2</title>
<polygon fill="white" stroke="#bfbfbf" points="0,-168.5 0,-187.5 48,-187.5 48,-168.5 0,-168.5"/>
<text text-anchor="middle" x="24" y="-175.5" font-family="Helvetica,sans-Serif" font-size="10.00">stdlib.h</text>
</g>
<!-- Node1&#45;&gt;Node2 -->
<g id="edge1" class="edge"><title>Node1&#45;&gt;Node2</title>
<path fill="none" stroke="midnightblue" d="M119.936,-224.444C101.425,-215.675 72.4193,-201.935 51.1445,-191.858"/>
<polygon fill="midnightblue" stroke="midnightblue" points="52.5148,-188.634 41.9791,-187.516 49.5182,-194.96 52.5148,-188.634"/>
</g>
<!-- Node3 -->
<g id="node3" class="node"><title>Node3</title>
<polygon fill="white" stroke="#bfbfbf" points="66.5,-168.5 66.5,-187.5 115.5,-187.5 115.5,-168.5 66.5,-168.5"/>
<text text-anchor="middle" x="91" y="-175.5" font-family="Helvetica,sans-Serif" font-size="10.00">string.h</text>
</g>
<!-- Node1&#45;&gt;Node3 -->
<g id="edge2" class="edge"><title>Node1&#45;&gt;Node3</title>
<path fill="none" stroke="midnightblue" d="M130.239,-224.083C123.463,-216.298 113.457,-204.801 105.245,-195.367"/>
<polygon fill="midnightblue" stroke="midnightblue" points="107.822,-192.996 98.6167,-187.751 102.542,-197.592 107.822,-192.996"/>
</g>
<!-- Node4 -->
<g id="node4" class="node"><title>Node4</title>
<g id="a_node4"><a xlink:href="fpc__com__link_8h.html" target="_top" xlink:title="Communication link interface. ">
<polygon fill="white" stroke="black" points="257.5,-168.5 257.5,-187.5 340.5,-187.5 340.5,-168.5 257.5,-168.5"/>
<text text-anchor="middle" x="299" y="-175.5" font-family="Helvetica,sans-Serif" font-size="10.00">fpc_com_link.h</text>
</a>
</g>
</g>
<!-- Node1&#45;&gt;Node4 -->
<g id="edge3" class="edge"><title>Node1&#45;&gt;Node4</title>
<path fill="none" stroke="midnightblue" d="M163.511,-224.444C190.596,-215.359 233.59,-200.939 263.869,-190.783"/>
<polygon fill="midnightblue" stroke="midnightblue" points="265.24,-194.015 273.608,-187.516 263.014,-187.378 265.24,-194.015"/>
</g>
<!-- Node11 -->
<g id="node11" class="node"><title>Node11</title>
<g id="a_node11"><a xlink:href="fpc__com__transport_8h.html" target="_top" xlink:title="Communication transport interface. ">
<polygon fill="white" stroke="black" points="133,-168.5 133,-187.5 239,-187.5 239,-168.5 133,-168.5"/>
<text text-anchor="middle" x="186" y="-175.5" font-family="Helvetica,sans-Serif" font-size="10.00">fpc_com_transport.h</text>
</a>
</g>
</g>
<!-- Node1&#45;&gt;Node11 -->
<g id="edge16" class="edge"><title>Node1&#45;&gt;Node11</title>
<path fill="none" stroke="midnightblue" d="M145.926,-224.083C152.846,-216.298 163.065,-204.801 171.452,-195.367"/>
<polygon fill="midnightblue" stroke="midnightblue" points="174.194,-197.55 178.221,-187.751 168.962,-192.9 174.194,-197.55"/>
</g>
<!-- Node5 -->
<g id="node5" class="node"><title>Node5</title>
<polygon fill="white" stroke="#bfbfbf" points="388,-0.5 388,-19.5 444,-19.5 444,-0.5 388,-0.5"/>
<text text-anchor="middle" x="416" y="-7.5" font-family="Helvetica,sans-Serif" font-size="10.00">stdbool.h</text>
</g>
<!-- Node4&#45;&gt;Node5 -->
<g id="edge4" class="edge"><title>Node4&#45;&gt;Node5</title>
<path fill="none" stroke="midnightblue" d="M340.707,-168.724C364.171,-162.201 392.566,-150.937 412,-132 437.37,-107.279 443.353,-90.6503 436,-56 434.003,-46.5915 429.899,-36.7618 425.925,-28.6981"/>
<polygon fill="midnightblue" stroke="midnightblue" points="428.887,-26.8101 421.13,-19.5932 422.693,-30.0721 428.887,-26.8101"/>
</g>
<!-- Node6 -->
<g id="node6" class="node"><title>Node6</title>
<polygon fill="white" stroke="#bfbfbf" points="160.5,-0.5 160.5,-19.5 209.5,-19.5 209.5,-0.5 160.5,-0.5"/>
<text text-anchor="middle" x="185" y="-7.5" font-family="Helvetica,sans-Serif" font-size="10.00">stdint.h</text>
</g>
<!-- Node4&#45;&gt;Node6 -->
<g id="edge5" class="edge"><title>Node4&#45;&gt;Node6</title>
<path fill="none" stroke="midnightblue" d="M319.622,-168.401C362.713,-149.253 455.322,-101.22 418,-56 393.312,-26.0874 278.904,-15.8332 220.104,-12.5013"/>
<polygon fill="midnightblue" stroke="midnightblue" points="219.977,-8.98977 209.806,-11.9565 219.607,-15.98 219.977,-8.98977"/>
</g>
<!-- Node7 -->
<g id="node7" class="node"><title>Node7</title>
<g id="a_node7"><a xlink:href="fpc__com__result_8h.html" target="_top" xlink:title="Communication result type definitions. ">
<polygon fill="white" stroke="black" points="197,-56.5 197,-75.5 289,-75.5 289,-56.5 197,-56.5"/>
<text text-anchor="middle" x="243" y="-63.5" font-family="Helvetica,sans-Serif" font-size="10.00">fpc_com_result.h</text>
</a>
</g>
</g>
<!-- Node4&#45;&gt;Node7 -->
<g id="edge6" class="edge"><title>Node4&#45;&gt;Node7</title>
<path fill="none" stroke="midnightblue" d="M294.606,-168.368C285.446,-150.376 264.153,-108.55 251.974,-84.6267"/>
<polygon fill="midnightblue" stroke="midnightblue" points="255.03,-82.9152 247.374,-75.5914 248.792,-86.091 255.03,-82.9152"/>
</g>
<!-- Node8 -->
<g id="node8" class="node"><title>Node8</title>
<g id="a_node8"><a xlink:href="fpc__com__chain_8h.html" target="_top" xlink:title="Communication chain type definitions. ">
<polygon fill="white" stroke="black" points="150.5,-112.5 150.5,-131.5 241.5,-131.5 241.5,-112.5 150.5,-112.5"/>
<text text-anchor="middle" x="196" y="-119.5" font-family="Helvetica,sans-Serif" font-size="10.00">fpc_com_chain.h</text>
</a>
</g>
</g>
<!-- Node4&#45;&gt;Node8 -->
<g id="edge8" class="edge"><title>Node4&#45;&gt;Node8</title>
<path fill="none" stroke="midnightblue" d="M282.451,-168.324C266.008,-159.703 240.565,-146.364 221.532,-136.386"/>
<polygon fill="midnightblue" stroke="midnightblue" points="222.989,-133.198 212.508,-131.655 219.739,-139.398 222.989,-133.198"/>
</g>
<!-- Node7&#45;&gt;Node6 -->
<g id="edge7" class="edge"><title>Node7&#45;&gt;Node6</title>
<path fill="none" stroke="midnightblue" d="M233.681,-56.324C225.107,-48.3414 212.188,-36.3128 201.812,-26.6529"/>
<polygon fill="midnightblue" stroke="midnightblue" points="204.192,-24.0865 194.488,-19.8339 199.422,-29.2098 204.192,-24.0865"/>
</g>
<!-- Node8&#45;&gt;Node6 -->
<g id="edge9" class="edge"><title>Node8&#45;&gt;Node6</title>
<path fill="none" stroke="midnightblue" d="M150.199,-117.838C121.486,-113.207 86.5189,-102.14 68,-76 44.4844,-42.8062 107.846,-24.6143 150.26,-16.4293"/>
<polygon fill="midnightblue" stroke="midnightblue" points="151.054,-19.8424 160.264,-14.6059 149.798,-12.9558 151.054,-19.8424"/>
</g>
<!-- Node8&#45;&gt;Node7 -->
<g id="edge10" class="edge"><title>Node8&#45;&gt;Node7</title>
<path fill="none" stroke="midnightblue" d="M203.761,-112.083C210.537,-104.298 220.543,-92.8015 228.755,-83.3665"/>
<polygon fill="midnightblue" stroke="midnightblue" points="231.458,-85.592 235.383,-75.7511 226.178,-80.9963 231.458,-85.592"/>
</g>
<!-- Node9 -->
<g id="node9" class="node"><title>Node9</title>
<g id="a_node9"><a xlink:href="fpc__hcp__common_8h.html" target="_top" xlink:title="Host Communication Protocol common type definitions. ">
<polygon fill="white" stroke="black" points="307,-56.5 307,-75.5 409,-75.5 409,-56.5 307,-56.5"/>
<text text-anchor="middle" x="358" y="-63.5" font-family="Helvetica,sans-Serif" font-size="10.00">fpc_hcp_common.h</text>
</a>
</g>
</g>
<!-- Node8&#45;&gt;Node9 -->
<g id="edge11" class="edge"><title>Node8&#45;&gt;Node9</title>
<path fill="none" stroke="midnightblue" d="M221.669,-112.444C248.923,-103.359 292.184,-88.9388 322.651,-78.7831"/>
<polygon fill="midnightblue" stroke="midnightblue" points="324.071,-81.9992 332.451,-75.5164 321.857,-75.3584 324.071,-81.9992"/>
</g>
<!-- Node10 -->
<g id="node10" class="node"><title>Node10</title>
<g id="a_node10"><a xlink:href="fpc__com__packets_8h.html" target="_top" xlink:title="Communication packet type definitions. ">
<polygon fill="white" stroke="black" points="77,-56.5 77,-75.5 179,-75.5 179,-56.5 77,-56.5"/>
<text text-anchor="middle" x="128" y="-63.5" font-family="Helvetica,sans-Serif" font-size="10.00">fpc_com_packets.h</text>
</a>
</g>
</g>
<!-- Node8&#45;&gt;Node10 -->
<g id="edge14" class="edge"><title>Node8&#45;&gt;Node10</title>
<path fill="none" stroke="midnightblue" d="M185.075,-112.324C174.825,-104.185 159.279,-91.8395 146.999,-82.0874"/>
<polygon fill="midnightblue" stroke="midnightblue" points="149.132,-79.3119 139.124,-75.8339 144.779,-84.7937 149.132,-79.3119"/>
</g>
<!-- Node9&#45;&gt;Node5 -->
<g id="edge13" class="edge"><title>Node9&#45;&gt;Node5</title>
<path fill="none" stroke="midnightblue" d="M367.319,-56.324C375.893,-48.3414 388.812,-36.3128 399.188,-26.6529"/>
<polygon fill="midnightblue" stroke="midnightblue" points="401.578,-29.2098 406.512,-19.8339 396.808,-24.0865 401.578,-29.2098"/>
</g>
<!-- Node9&#45;&gt;Node6 -->
<g id="edge12" class="edge"><title>Node9&#45;&gt;Node6</title>
<path fill="none" stroke="midnightblue" d="M330.588,-56.4435C300.454,-47.0375 251.993,-31.9112 219.347,-21.7212"/>
<polygon fill="midnightblue" stroke="midnightblue" points="220.35,-18.3677 209.762,-18.729 218.264,-25.0497 220.35,-18.3677"/>
</g>
<!-- Node10&#45;&gt;Node6 -->
<g id="edge15" class="edge"><title>Node10&#45;&gt;Node6</title>
<path fill="none" stroke="midnightblue" d="M137.158,-56.324C145.501,-48.4196 158.032,-36.5482 168.177,-26.9377"/>
<polygon fill="midnightblue" stroke="midnightblue" points="170.823,-29.2522 175.675,-19.8339 166.009,-24.1705 170.823,-29.2522"/>
</g>
<!-- Node11&#45;&gt;Node6 -->
<g id="edge17" class="edge"><title>Node11&#45;&gt;Node6</title>
<path fill="none" stroke="midnightblue" d="M162.851,-168.382C117.296,-150.102 23.3245,-105.075 58,-56 78.769,-26.6067 120.448,-16.2902 150.4,-12.737"/>
<polygon fill="midnightblue" stroke="midnightblue" points="150.845,-16.2101 160.452,-11.7421 150.156,-9.24414 150.845,-16.2101"/>
</g>
<!-- Node11&#45;&gt;Node8 -->
<g id="edge18" class="edge"><title>Node11&#45;&gt;Node8</title>
<path fill="none" stroke="midnightblue" d="M187.651,-168.083C188.976,-160.927 190.882,-150.635 192.539,-141.691"/>
<polygon fill="midnightblue" stroke="midnightblue" points="196,-142.221 194.379,-131.751 189.117,-140.947 196,-142.221"/>
</g>
</g>
</svg>
