<?xml version="1.0" encoding="UTF-8" standalone="no"?>
<!DOCTYPE svg PUBLIC "-//W3C//DTD SVG 1.1//EN"
 "http://www.w3.org/Graphics/SVG/1.1/DTD/svg11.dtd">
<!-- Generated by graphviz version 2.38.0 (20140413.2041)
 -->
<!-- Title: src/fpc_hcp.c Pages: 1 -->
<svg width="413pt" height="252pt"
 viewBox="0.00 0.00 413.03 252.00" xmlns="http://www.w3.org/2000/svg" xmlns:xlink="http://www.w3.org/1999/xlink">
<g id="graph0" class="graph" transform="scale(1 1) rotate(0) translate(4 248)">
<title>src/fpc_hcp.c</title>
<polygon fill="white" stroke="none" points="-4,4 -4,-248 409.03,-248 409.03,4 -4,4"/>
<!-- Node1 -->
<g id="node1" class="node"><title>Node1</title>
<polygon fill="#bfbfbf" stroke="black" points="53,-224.5 53,-243.5 129,-243.5 129,-224.5 53,-224.5"/>
<text text-anchor="middle" x="91" y="-231.5" font-family="Helvetica,sans-Serif" font-size="10.00">src/fpc_hcp.c</text>
</g>
<!-- Node2 -->
<g id="node2" class="node"><title>Node2</title>
<polygon fill="white" stroke="#bfbfbf" points="0,-168.5 0,-187.5 48,-187.5 48,-168.5 0,-168.5"/>
<text text-anchor="middle" x="24" y="-175.5" font-family="Helvetica,sans-Serif" font-size="10.00">stdlib.h</text>
</g>
<!-- Node1&#45;&gt;Node2 -->
<g id="edge1" class="edge"><title>Node1&#45;&gt;Node2</title>
<path fill="none" stroke="midnightblue" d="M80.2353,-224.324C70.2339,-216.263 55.1135,-204.077 43.0695,-194.369"/>
<polygon fill="midnightblue" stroke="midnightblue" points="44.9429,-191.384 34.9606,-187.834 40.5502,-196.834 44.9429,-191.384"/>
</g>
<!-- Node3 -->
<g id="node3" class="node"><title>Node3</title>
<polygon fill="white" stroke="#bfbfbf" points="66.5,-168.5 66.5,-187.5 115.5,-187.5 115.5,-168.5 66.5,-168.5"/>
<text text-anchor="middle" x="91" y="-175.5" font-family="Helvetica,sans-Serif" font-size="10.00">string.h</text>
</g>
<!-- Node1&#45;&gt;Node3 -->
<g id="edge2" class="edge"><title>Node1&#45;&gt;Node3</title>
<path fill="none" stroke="midnightblue" d="M91,-224.083C91,-217.006 91,-206.861 91,-197.986"/>
<polygon fill="midnightblue" stroke="midnightblue" points="94.5001,-197.751 91,-187.751 87.5001,-197.751 94.5001,-197.751"/>
</g>
<!-- Node4 -->
<g id="node4" class="node"><title>Node4</title>
<g id="a_node4"><a xlink:href="fpc__hcp_8h.html" target="_top" xlink:title="Host Communication Protocol interface. ">
<polygon fill="white" stroke="black" points="133.5,-168.5 133.5,-187.5 192.5,-187.5 192.5,-168.5 133.5,-168.5"/>
<text text-anchor="middle" x="163" y="-175.5" font-family="Helvetica,sans-Serif" font-size="10.00">fpc_hcp.h</text>
</a>
</g>
</g>
<!-- Node1&#45;&gt;Node4 -->
<g id="edge3" class="edge"><title>Node1&#45;&gt;Node4</title>
<path fill="none" stroke="midnightblue" d="M102.568,-224.324C113.42,-216.185 129.881,-203.839 142.883,-194.087"/>
<polygon fill="midnightblue" stroke="midnightblue" points="145.321,-196.634 151.221,-187.834 141.121,-191.034 145.321,-196.634"/>
</g>
<!-- Node5 -->
<g id="node5" class="node"><title>Node5</title>
<polygon fill="white" stroke="#bfbfbf" points="28,-0.5 28,-19.5 84,-19.5 84,-0.5 28,-0.5"/>
<text text-anchor="middle" x="56" y="-7.5" font-family="Helvetica,sans-Serif" font-size="10.00">stdbool.h</text>
</g>
<!-- Node4&#45;&gt;Node5 -->
<g id="edge4" class="edge"><title>Node4&#45;&gt;Node5</title>
<path fill="none" stroke="midnightblue" d="M143.224,-168.417C113.295,-154.196 57.5965,-122.614 35,-76 27.5072,-60.5433 35.2158,-41.7691 43.3227,-28.3796"/>
<polygon fill="midnightblue" stroke="midnightblue" points="46.4665,-29.9724 49.0845,-19.7061 40.6357,-26.099 46.4665,-29.9724"/>
</g>
<!-- Node6 -->
<g id="node6" class="node"><title>Node6</title>
<polygon fill="white" stroke="#bfbfbf" points="300.5,-0.5 300.5,-19.5 349.5,-19.5 349.5,-0.5 300.5,-0.5"/>
<text text-anchor="middle" x="325" y="-7.5" font-family="Helvetica,sans-Serif" font-size="10.00">stdint.h</text>
</g>
<!-- Node4&#45;&gt;Node6 -->
<g id="edge5" class="edge"><title>Node4&#45;&gt;Node6</title>
<path fill="none" stroke="midnightblue" d="M192.914,-174.502C245.627,-168.304 353.926,-147.115 401,-76 415.681,-53.8223 385.578,-34.9119 359.032,-23.2997"/>
<polygon fill="midnightblue" stroke="midnightblue" points="360.081,-19.946 349.502,-19.3592 357.406,-26.4148 360.081,-19.946"/>
</g>
<!-- Node7 -->
<g id="node7" class="node"><title>Node7</title>
<g id="a_node7"><a xlink:href="fpc__hcp__common_8h.html" target="_top" xlink:title="Host Communication Protocol common type definitions. ">
<polygon fill="white" stroke="black" points="44,-56.5 44,-75.5 146,-75.5 146,-56.5 44,-56.5"/>
<text text-anchor="middle" x="95" y="-63.5" font-family="Helvetica,sans-Serif" font-size="10.00">fpc_hcp_common.h</text>
</a>
</g>
</g>
<!-- Node4&#45;&gt;Node7 -->
<g id="edge6" class="edge"><title>Node4&#45;&gt;Node7</title>
<path fill="none" stroke="midnightblue" d="M157.664,-168.368C146.492,-150.296 120.455,-108.176 105.699,-84.3074"/>
<polygon fill="midnightblue" stroke="midnightblue" points="108.546,-82.257 100.311,-75.5914 102.592,-85.9378 108.546,-82.257"/>
</g>
<!-- Node8 -->
<g id="node8" class="node"><title>Node8</title>
<g id="a_node8"><a xlink:href="fpc__com__chain_8h.html" target="_top" xlink:title="Communication chain type definitions. ">
<polygon fill="white" stroke="black" points="164.5,-112.5 164.5,-131.5 255.5,-131.5 255.5,-112.5 164.5,-112.5"/>
<text text-anchor="middle" x="210" y="-119.5" font-family="Helvetica,sans-Serif" font-size="10.00">fpc_com_chain.h</text>
</a>
</g>
</g>
<!-- Node4&#45;&gt;Node8 -->
<g id="edge9" class="edge"><title>Node4&#45;&gt;Node8</title>
<path fill="none" stroke="midnightblue" d="M170.761,-168.083C177.537,-160.298 187.543,-148.801 195.755,-139.367"/>
<polygon fill="midnightblue" stroke="midnightblue" points="198.458,-141.592 202.383,-131.751 193.178,-136.996 198.458,-141.592"/>
</g>
<!-- Node7&#45;&gt;Node5 -->
<g id="edge8" class="edge"><title>Node7&#45;&gt;Node5</title>
<path fill="none" stroke="midnightblue" d="M88.5599,-56.083C83.0511,-48.4554 74.9688,-37.2645 68.235,-27.9408"/>
<polygon fill="midnightblue" stroke="midnightblue" points="71.0126,-25.8087 62.3202,-19.7511 65.3378,-29.9071 71.0126,-25.8087"/>
</g>
<!-- Node7&#45;&gt;Node6 -->
<g id="edge7" class="edge"><title>Node7&#45;&gt;Node6</title>
<path fill="none" stroke="midnightblue" d="M131.444,-56.4435C175.092,-46.1957 247.661,-29.1578 290.451,-19.1115"/>
<polygon fill="midnightblue" stroke="midnightblue" points="291.46,-22.4698 300.395,-16.7767 289.86,-15.6551 291.46,-22.4698"/>
</g>
<!-- Node8&#45;&gt;Node6 -->
<g id="edge10" class="edge"><title>Node8&#45;&gt;Node6</title>
<path fill="none" stroke="midnightblue" d="M255.877,-115.558C302.261,-109.001 369.286,-96.2666 385,-76 399.64,-57.1197 374.33,-37.1828 352.218,-24.4456"/>
<polygon fill="midnightblue" stroke="midnightblue" points="353.827,-21.3364 343.374,-19.6124 350.471,-27.4791 353.827,-21.3364"/>
</g>
<!-- Node8&#45;&gt;Node7 -->
<g id="edge13" class="edge"><title>Node8&#45;&gt;Node7</title>
<path fill="none" stroke="midnightblue" d="M191.778,-112.444C173.104,-103.675 143.844,-89.9355 122.383,-79.8579"/>
<polygon fill="midnightblue" stroke="midnightblue" points="123.676,-76.5988 113.137,-75.5164 120.701,-82.935 123.676,-76.5988"/>
</g>
<!-- Node9 -->
<g id="node9" class="node"><title>Node9</title>
<g id="a_node9"><a xlink:href="fpc__com__result_8h.html" target="_top" xlink:title="Communication result type definitions. ">
<polygon fill="white" stroke="black" points="164,-56.5 164,-75.5 256,-75.5 256,-56.5 164,-56.5"/>
<text text-anchor="middle" x="210" y="-63.5" font-family="Helvetica,sans-Serif" font-size="10.00">fpc_com_result.h</text>
</a>
</g>
</g>
<!-- Node8&#45;&gt;Node9 -->
<g id="edge11" class="edge"><title>Node8&#45;&gt;Node9</title>
<path fill="none" stroke="midnightblue" d="M210,-112.083C210,-105.006 210,-94.8611 210,-85.9865"/>
<polygon fill="midnightblue" stroke="midnightblue" points="213.5,-85.751 210,-75.7511 206.5,-85.7511 213.5,-85.751"/>
</g>
<!-- Node10 -->
<g id="node10" class="node"><title>Node10</title>
<g id="a_node10"><a xlink:href="fpc__com__packets_8h.html" target="_top" xlink:title="Communication packet type definitions. ">
<polygon fill="white" stroke="black" points="274,-56.5 274,-75.5 376,-75.5 376,-56.5 274,-56.5"/>
<text text-anchor="middle" x="325" y="-63.5" font-family="Helvetica,sans-Serif" font-size="10.00">fpc_com_packets.h</text>
</a>
</g>
</g>
<!-- Node8&#45;&gt;Node10 -->
<g id="edge14" class="edge"><title>Node8&#45;&gt;Node10</title>
<path fill="none" stroke="midnightblue" d="M228.222,-112.444C246.896,-103.675 276.156,-89.9355 297.617,-79.8579"/>
<polygon fill="midnightblue" stroke="midnightblue" points="299.299,-82.935 306.863,-75.5164 296.324,-76.5988 299.299,-82.935"/>
</g>
<!-- Node9&#45;&gt;Node6 -->
<g id="edge12" class="edge"><title>Node9&#45;&gt;Node6</title>
<path fill="none" stroke="midnightblue" d="M228.222,-56.4435C246.896,-47.6751 276.156,-33.9355 297.617,-23.8579"/>
<polygon fill="midnightblue" stroke="midnightblue" points="299.299,-26.935 306.863,-19.5164 296.324,-20.5988 299.299,-26.935"/>
</g>
<!-- Node10&#45;&gt;Node6 -->
<g id="edge15" class="edge"><title>Node10&#45;&gt;Node6</title>
<path fill="none" stroke="midnightblue" d="M325,-56.083C325,-49.0059 325,-38.8611 325,-29.9865"/>
<polygon fill="midnightblue" stroke="midnightblue" points="328.5,-29.751 325,-19.7511 321.5,-29.7511 328.5,-29.751"/>
</g>
</g>
</svg>
