<?xml version="1.0" encoding="UTF-8" standalone="no"?>
<!DOCTYPE svg PUBLIC "-//W3C//DTD SVG 1.1//EN"
 "http://www.w3.org/Graphics/SVG/1.1/DTD/svg11.dtd">
<!-- Generated by graphviz version 2.38.0 (20140413.2041)
 -->
<!-- Title: inc/fpc_com_transport.h Pages: 1 -->
<svg width="411pt" height="196pt"
 viewBox="0.00 0.00 411.00 196.00" xmlns="http://www.w3.org/2000/svg" xmlns:xlink="http://www.w3.org/1999/xlink">
<g id="graph0" class="graph" transform="scale(1 1) rotate(0) translate(4 192)">
<title>inc/fpc_com_transport.h</title>
<polygon fill="white" stroke="none" points="-4,4 -4,-192 407,-192 407,4 -4,4"/>
<!-- Node1 -->
<g id="node1" class="node"><title>Node1</title>
<polygon fill="#bfbfbf" stroke="black" points="0,-168.5 0,-187.5 122,-187.5 122,-168.5 0,-168.5"/>
<text text-anchor="middle" x="61" y="-175.5" font-family="Helvetica,sans-Serif" font-size="10.00">inc/fpc_com_transport.h</text>
</g>
<!-- Node2 -->
<g id="node2" class="node"><title>Node2</title>
<polygon fill="white" stroke="#bfbfbf" points="92.5,-0.5 92.5,-19.5 141.5,-19.5 141.5,-0.5 92.5,-0.5"/>
<text text-anchor="middle" x="117" y="-7.5" font-family="Helvetica,sans-Serif" font-size="10.00">stdint.h</text>
</g>
<!-- Node1&#45;&gt;Node2 -->
<g id="edge1" class="edge"><title>Node1&#45;&gt;Node2</title>
<path fill="none" stroke="midnightblue" d="M57.972,-168.488C51.1782,-147.86 36.7618,-94.0988 56,-56 62.8069,-42.5199 75.7677,-32.083 87.9979,-24.6696"/>
<polygon fill="midnightblue" stroke="midnightblue" points="90.0698,-27.5214 97.0939,-19.5896 86.6566,-21.4099 90.0698,-27.5214"/>
</g>
<!-- Node3 -->
<g id="node3" class="node"><title>Node3</title>
<g id="a_node3"><a xlink:href="fpc__com__chain_8h.html" target="_top" xlink:title="Communication chain type definitions. ">
<polygon fill="white" stroke="black" points="71.5,-112.5 71.5,-131.5 162.5,-131.5 162.5,-112.5 71.5,-112.5"/>
<text text-anchor="middle" x="117" y="-119.5" font-family="Helvetica,sans-Serif" font-size="10.00">fpc_com_chain.h</text>
</a>
</g>
</g>
<!-- Node1&#45;&gt;Node3 -->
<g id="edge2" class="edge"><title>Node1&#45;&gt;Node3</title>
<path fill="none" stroke="midnightblue" d="M69.9974,-168.324C78.1944,-160.42 90.5055,-148.548 100.472,-138.938"/>
<polygon fill="midnightblue" stroke="midnightblue" points="103.07,-141.295 107.839,-131.834 98.211,-136.256 103.07,-141.295"/>
</g>
<!-- Node3&#45;&gt;Node2 -->
<g id="edge3" class="edge"><title>Node3&#45;&gt;Node2</title>
<path fill="none" stroke="midnightblue" d="M100.296,-112.42C80.3523,-100.919 50.9853,-79.2437 62,-56 68.1281,-43.0681 79.9942,-32.6167 91.1405,-25.0528"/>
<polygon fill="midnightblue" stroke="midnightblue" points="93.1947,-27.8958 99.802,-19.6136 89.472,-21.9678 93.1947,-27.8958"/>
</g>
<!-- Node4 -->
<g id="node4" class="node"><title>Node4</title>
<g id="a_node4"><a xlink:href="fpc__com__result_8h.html" target="_top" xlink:title="Communication result type definitions. ">
<polygon fill="white" stroke="black" points="71,-56.5 71,-75.5 163,-75.5 163,-56.5 71,-56.5"/>
<text text-anchor="middle" x="117" y="-63.5" font-family="Helvetica,sans-Serif" font-size="10.00">fpc_com_result.h</text>
</a>
</g>
</g>
<!-- Node3&#45;&gt;Node4 -->
<g id="edge4" class="edge"><title>Node3&#45;&gt;Node4</title>
<path fill="none" stroke="midnightblue" d="M117,-112.083C117,-105.006 117,-94.8611 117,-85.9865"/>
<polygon fill="midnightblue" stroke="midnightblue" points="120.5,-85.751 117,-75.7511 113.5,-85.7511 120.5,-85.751"/>
</g>
<!-- Node5 -->
<g id="node5" class="node"><title>Node5</title>
<g id="a_node5"><a xlink:href="fpc__hcp__common_8h.html" target="_top" xlink:title="Host Communication Protocol common type definitions. ">
<polygon fill="white" stroke="black" points="301,-56.5 301,-75.5 403,-75.5 403,-56.5 301,-56.5"/>
<text text-anchor="middle" x="352" y="-63.5" font-family="Helvetica,sans-Serif" font-size="10.00">fpc_hcp_common.h</text>
</a>
</g>
</g>
<!-- Node3&#45;&gt;Node5 -->
<g id="edge6" class="edge"><title>Node3&#45;&gt;Node5</title>
<path fill="none" stroke="midnightblue" d="M154.236,-112.444C195.06,-103.063 260.643,-87.9926 304.984,-77.8036"/>
<polygon fill="midnightblue" stroke="midnightblue" points="305.976,-81.1671 314.938,-75.5164 304.408,-74.3449 305.976,-81.1671"/>
</g>
<!-- Node7 -->
<g id="node7" class="node"><title>Node7</title>
<g id="a_node7"><a xlink:href="fpc__com__packets_8h.html" target="_top" xlink:title="Communication packet type definitions. ">
<polygon fill="white" stroke="black" points="181,-56.5 181,-75.5 283,-75.5 283,-56.5 181,-56.5"/>
<text text-anchor="middle" x="232" y="-63.5" font-family="Helvetica,sans-Serif" font-size="10.00">fpc_com_packets.h</text>
</a>
</g>
</g>
<!-- Node3&#45;&gt;Node7 -->
<g id="edge9" class="edge"><title>Node3&#45;&gt;Node7</title>
<path fill="none" stroke="midnightblue" d="M135.222,-112.444C153.896,-103.675 183.156,-89.9355 204.617,-79.8579"/>
<polygon fill="midnightblue" stroke="midnightblue" points="206.299,-82.935 213.863,-75.5164 203.324,-76.5988 206.299,-82.935"/>
</g>
<!-- Node4&#45;&gt;Node2 -->
<g id="edge5" class="edge"><title>Node4&#45;&gt;Node2</title>
<path fill="none" stroke="midnightblue" d="M117,-56.083C117,-49.0059 117,-38.8611 117,-29.9865"/>
<polygon fill="midnightblue" stroke="midnightblue" points="120.5,-29.751 117,-19.7511 113.5,-29.7511 120.5,-29.751"/>
</g>
<!-- Node5&#45;&gt;Node2 -->
<g id="edge7" class="edge"><title>Node5&#45;&gt;Node2</title>
<path fill="none" stroke="midnightblue" d="M314.764,-56.4435C269.952,-46.1465 195.308,-28.9941 151.672,-18.9673"/>
<polygon fill="midnightblue" stroke="midnightblue" points="152.337,-15.5288 141.807,-16.7003 150.769,-22.351 152.337,-15.5288"/>
</g>
<!-- Node6 -->
<g id="node6" class="node"><title>Node6</title>
<polygon fill="white" stroke="#bfbfbf" points="324,-0.5 324,-19.5 380,-19.5 380,-0.5 324,-0.5"/>
<text text-anchor="middle" x="352" y="-7.5" font-family="Helvetica,sans-Serif" font-size="10.00">stdbool.h</text>
</g>
<!-- Node5&#45;&gt;Node6 -->
<g id="edge8" class="edge"><title>Node5&#45;&gt;Node6</title>
<path fill="none" stroke="midnightblue" d="M352,-56.083C352,-49.0059 352,-38.8611 352,-29.9865"/>
<polygon fill="midnightblue" stroke="midnightblue" points="355.5,-29.751 352,-19.7511 348.5,-29.7511 355.5,-29.751"/>
</g>
<!-- Node7&#45;&gt;Node2 -->
<g id="edge10" class="edge"><title>Node7&#45;&gt;Node2</title>
<path fill="none" stroke="midnightblue" d="M213.778,-56.4435C195.104,-47.6751 165.844,-33.9355 144.383,-23.8579"/>
<polygon fill="midnightblue" stroke="midnightblue" points="145.676,-20.5988 135.137,-19.5164 142.701,-26.935 145.676,-20.5988"/>
</g>
</g>
</svg>
