<?xml version="1.0" encoding="UTF-8" standalone="no"?>
<!DOCTYPE svg PUBLIC "-//W3C//DTD SVG 1.1//EN"
 "http://www.w3.org/Graphics/SVG/1.1/DTD/svg11.dtd">
<!-- Generated by graphviz version 2.38.0 (20140413.2041)
 -->
<!-- Title: inc/fpc_com_link.h Pages: 1 -->
<svg width="413pt" height="196pt"
 viewBox="0.00 0.00 412.67 196.00" xmlns="http://www.w3.org/2000/svg" xmlns:xlink="http://www.w3.org/1999/xlink">
<g id="graph0" class="graph" transform="scale(1 1) rotate(0) translate(4 192)">
<title>inc/fpc_com_link.h</title>
<polygon fill="white" stroke="none" points="-4,4 -4,-192 408.666,-192 408.666,4 -4,4"/>
<!-- Node1 -->
<g id="node1" class="node"><title>Node1</title>
<polygon fill="#bfbfbf" stroke="black" points="224,-168.5 224,-187.5 322,-187.5 322,-168.5 224,-168.5"/>
<text text-anchor="middle" x="273" y="-175.5" font-family="Helvetica,sans-Serif" font-size="10.00">inc/fpc_com_link.h</text>
</g>
<!-- Node2 -->
<g id="node2" class="node"><title>Node2</title>
<polygon fill="white" stroke="#bfbfbf" points="0,-0.5 0,-19.5 56,-19.5 56,-0.5 0,-0.5"/>
<text text-anchor="middle" x="28" y="-7.5" font-family="Helvetica,sans-Serif" font-size="10.00">stdbool.h</text>
</g>
<!-- Node1&#45;&gt;Node2 -->
<g id="edge1" class="edge"><title>Node1&#45;&gt;Node2</title>
<path fill="none" stroke="midnightblue" d="M223.812,-174.264C161.563,-167.852 56.6077,-146.544 8,-76 -1.90623,-61.6231 6.30523,-42.1673 15.0088,-28.2971"/>
<polygon fill="midnightblue" stroke="midnightblue" points="18.1237,-29.9438 20.8964,-19.7182 12.3521,-25.9828 18.1237,-29.9438"/>
</g>
<!-- Node3 -->
<g id="node3" class="node"><title>Node3</title>
<polygon fill="white" stroke="#bfbfbf" points="201.5,-0.5 201.5,-19.5 250.5,-19.5 250.5,-0.5 201.5,-0.5"/>
<text text-anchor="middle" x="226" y="-7.5" font-family="Helvetica,sans-Serif" font-size="10.00">stdint.h</text>
</g>
<!-- Node1&#45;&gt;Node3 -->
<g id="edge2" class="edge"><title>Node1&#45;&gt;Node3</title>
<path fill="none" stroke="midnightblue" d="M294.651,-168.419C338.814,-149.68 432.177,-103 396,-56 379.622,-34.7223 305.492,-21.4395 260.705,-15.2105"/>
<polygon fill="midnightblue" stroke="midnightblue" points="260.921,-11.7082 250.544,-13.8479 259.99,-18.646 260.921,-11.7082"/>
</g>
<!-- Node4 -->
<g id="node4" class="node"><title>Node4</title>
<g id="a_node4"><a xlink:href="fpc__com__result_8h.html" target="_top" xlink:title="Communication result type definitions. ">
<polygon fill="white" stroke="black" points="295,-56.5 295,-75.5 387,-75.5 387,-56.5 295,-56.5"/>
<text text-anchor="middle" x="341" y="-63.5" font-family="Helvetica,sans-Serif" font-size="10.00">fpc_com_result.h</text>
</a>
</g>
</g>
<!-- Node1&#45;&gt;Node4 -->
<g id="edge3" class="edge"><title>Node1&#45;&gt;Node4</title>
<path fill="none" stroke="midnightblue" d="M278.336,-168.368C289.508,-150.296 315.545,-108.176 330.301,-84.3074"/>
<polygon fill="midnightblue" stroke="midnightblue" points="333.408,-85.9378 335.689,-75.5914 327.454,-82.257 333.408,-85.9378"/>
</g>
<!-- Node5 -->
<g id="node5" class="node"><title>Node5</title>
<g id="a_node5"><a xlink:href="fpc__com__chain_8h.html" target="_top" xlink:title="Communication chain type definitions. ">
<polygon fill="white" stroke="black" points="180.5,-112.5 180.5,-131.5 271.5,-131.5 271.5,-112.5 180.5,-112.5"/>
<text text-anchor="middle" x="226" y="-119.5" font-family="Helvetica,sans-Serif" font-size="10.00">fpc_com_chain.h</text>
</a>
</g>
</g>
<!-- Node1&#45;&gt;Node5 -->
<g id="edge5" class="edge"><title>Node1&#45;&gt;Node5</title>
<path fill="none" stroke="midnightblue" d="M265.239,-168.083C258.463,-160.298 248.457,-148.801 240.245,-139.367"/>
<polygon fill="midnightblue" stroke="midnightblue" points="242.822,-136.996 233.617,-131.751 237.542,-141.592 242.822,-136.996"/>
</g>
<!-- Node4&#45;&gt;Node3 -->
<g id="edge4" class="edge"><title>Node4&#45;&gt;Node3</title>
<path fill="none" stroke="midnightblue" d="M322.778,-56.4435C304.104,-47.6751 274.844,-33.9355 253.383,-23.8579"/>
<polygon fill="midnightblue" stroke="midnightblue" points="254.676,-20.5988 244.137,-19.5164 251.701,-26.935 254.676,-20.5988"/>
</g>
<!-- Node5&#45;&gt;Node3 -->
<g id="edge6" class="edge"><title>Node5&#45;&gt;Node3</title>
<path fill="none" stroke="midnightblue" d="M206.704,-112.48C192.571,-105.081 174.443,-92.887 166,-76 155.65,-55.2997 178.277,-36.4462 198.643,-24.4384"/>
<polygon fill="midnightblue" stroke="midnightblue" points="200.371,-27.4821 207.422,-19.5735 196.978,-21.3594 200.371,-27.4821"/>
</g>
<!-- Node5&#45;&gt;Node4 -->
<g id="edge7" class="edge"><title>Node5&#45;&gt;Node4</title>
<path fill="none" stroke="midnightblue" d="M244.222,-112.444C262.896,-103.675 292.156,-89.9355 313.617,-79.8579"/>
<polygon fill="midnightblue" stroke="midnightblue" points="315.299,-82.935 322.863,-75.5164 312.324,-76.5988 315.299,-82.935"/>
</g>
<!-- Node6 -->
<g id="node6" class="node"><title>Node6</title>
<g id="a_node6"><a xlink:href="fpc__hcp__common_8h.html" target="_top" xlink:title="Host Communication Protocol common type definitions. ">
<polygon fill="white" stroke="black" points="17,-56.5 17,-75.5 119,-75.5 119,-56.5 17,-56.5"/>
<text text-anchor="middle" x="68" y="-63.5" font-family="Helvetica,sans-Serif" font-size="10.00">fpc_hcp_common.h</text>
</a>
</g>
</g>
<!-- Node5&#45;&gt;Node6 -->
<g id="edge8" class="edge"><title>Node5&#45;&gt;Node6</title>
<path fill="none" stroke="midnightblue" d="M200.964,-112.444C174.384,-103.359 132.191,-88.9388 102.477,-78.7831"/>
<polygon fill="midnightblue" stroke="midnightblue" points="103.513,-75.4386 92.9184,-75.5164 101.249,-82.0625 103.513,-75.4386"/>
</g>
<!-- Node7 -->
<g id="node7" class="node"><title>Node7</title>
<g id="a_node7"><a xlink:href="fpc__com__packets_8h.html" target="_top" xlink:title="Communication packet type definitions. ">
<polygon fill="white" stroke="black" points="175,-56.5 175,-75.5 277,-75.5 277,-56.5 175,-56.5"/>
<text text-anchor="middle" x="226" y="-63.5" font-family="Helvetica,sans-Serif" font-size="10.00">fpc_com_packets.h</text>
</a>
</g>
</g>
<!-- Node5&#45;&gt;Node7 -->
<g id="edge11" class="edge"><title>Node5&#45;&gt;Node7</title>
<path fill="none" stroke="midnightblue" d="M226,-112.083C226,-105.006 226,-94.8611 226,-85.9865"/>
<polygon fill="midnightblue" stroke="midnightblue" points="229.5,-85.751 226,-75.7511 222.5,-85.7511 229.5,-85.751"/>
</g>
<!-- Node6&#45;&gt;Node2 -->
<g id="edge10" class="edge"><title>Node6&#45;&gt;Node2</title>
<path fill="none" stroke="midnightblue" d="M61.3948,-56.083C55.7448,-48.4554 47.4552,-37.2645 40.5488,-27.9408"/>
<polygon fill="midnightblue" stroke="midnightblue" points="43.2471,-25.7034 34.4823,-19.7511 37.6221,-29.87 43.2471,-25.7034"/>
</g>
<!-- Node6&#45;&gt;Node3 -->
<g id="edge9" class="edge"><title>Node6&#45;&gt;Node3</title>
<path fill="none" stroke="midnightblue" d="M93.0356,-56.4435C119.694,-47.3324 162.057,-32.8539 191.785,-22.6936"/>
<polygon fill="midnightblue" stroke="midnightblue" points="193.011,-25.9736 201.342,-19.4275 190.747,-19.3497 193.011,-25.9736"/>
</g>
<!-- Node7&#45;&gt;Node3 -->
<g id="edge12" class="edge"><title>Node7&#45;&gt;Node3</title>
<path fill="none" stroke="midnightblue" d="M226,-56.083C226,-49.0059 226,-38.8611 226,-29.9865"/>
<polygon fill="midnightblue" stroke="midnightblue" points="229.5,-29.751 226,-19.7511 222.5,-29.7511 229.5,-29.751"/>
</g>
</g>
</svg>
