<?xml version="1.0" encoding="UTF-8" standalone="no"?>
<!DOCTYPE svg PUBLIC "-//W3C//DTD SVG 1.1//EN"
 "http://www.w3.org/Graphics/SVG/1.1/DTD/svg11.dtd">
<!-- Generated by graphviz version 2.38.0 (20140413.2041)
 -->
<!-- Title: fpc_hcp_transmit Pages: 1 -->
<svg width="354pt" height="28pt"
 viewBox="0.00 0.00 354.00 28.00" xmlns="http://www.w3.org/2000/svg" xmlns:xlink="http://www.w3.org/1999/xlink">
<g id="graph0" class="graph" transform="scale(1 1) rotate(0) translate(4 24)">
<title>fpc_hcp_transmit</title>
<polygon fill="white" stroke="none" points="-4,4 -4,-24 350,-24 350,4 -4,4"/>
<!-- Node1 -->
<g id="node1" class="node"><title>Node1</title>
<polygon fill="#bfbfbf" stroke="black" points="0,-0.5 0,-19.5 92,-19.5 92,-0.5 0,-0.5"/>
<text text-anchor="middle" x="46" y="-7.5" font-family="Helvetica,sans-Serif" font-size="10.00">fpc_hcp_transmit</text>
</g>
<!-- Node2 -->
<g id="node2" class="node"><title>Node2</title>
<g id="a_node2"><a xlink:href="fpc__hcp_8c.html#a0c5716b3b2adf3204cf135d9ddaa3688" target="_top" xlink:title="Handle transmit chunks. ">
<polygon fill="white" stroke="black" points="128,-0.5 128,-19.5 217,-19.5 217,-0.5 128,-0.5"/>
<text text-anchor="middle" x="172.5" y="-7.5" font-family="Helvetica,sans-Serif" font-size="10.00">transmit_chunks</text>
</a>
</g>
</g>
<!-- Node1&#45;&gt;Node2 -->
<g id="edge1" class="edge"><title>Node1&#45;&gt;Node2</title>
<path fill="none" stroke="midnightblue" d="M92.2995,-10C100.505,-10 109.135,-10 117.559,-10"/>
<polygon fill="midnightblue" stroke="midnightblue" points="117.689,-13.5001 127.689,-10 117.689,-6.5001 117.689,-13.5001"/>
</g>
<!-- Node3 -->
<g id="node3" class="node"><title>Node3</title>
<g id="a_node3"><a xlink:href="fpc__hcp_8c.html#a144fab9621ae9cd7abb8e3660b20265f" target="_top" xlink:title="Calculate serialized packet size. ">
<polygon fill="white" stroke="black" points="253,-0.5 253,-19.5 346,-19.5 346,-0.5 253,-0.5"/>
<text text-anchor="middle" x="299.5" y="-7.5" font-family="Helvetica,sans-Serif" font-size="10.00">fpc_hcp_get_size</text>
</a>
</g>
</g>
<!-- Node2&#45;&gt;Node3 -->
<g id="edge2" class="edge"><title>Node2&#45;&gt;Node3</title>
<path fill="none" stroke="midnightblue" d="M217.219,-10C225.427,-10 234.113,-10 242.631,-10"/>
<polygon fill="midnightblue" stroke="midnightblue" points="242.897,-13.5001 252.897,-10 242.897,-6.5001 242.897,-13.5001"/>
</g>
</g>
</svg>
