<?xml version="1.0" encoding="UTF-8" standalone="no"?>
<!DOCTYPE svg PUBLIC "-//W3C//DTD SVG 1.1//EN"
 "http://www.w3.org/Graphics/SVG/1.1/DTD/svg11.dtd">
<!-- Generated by graphviz version 2.38.0 (20140413.2041)
 -->
<!-- Title: fpc_com_transport_transmit Pages: 1 -->
<svg width="471pt" height="28pt"
 viewBox="0.00 0.00 471.00 28.00" xmlns="http://www.w3.org/2000/svg" xmlns:xlink="http://www.w3.org/1999/xlink">
<g id="graph0" class="graph" transform="scale(1 1) rotate(0) translate(4 24)">
<title>fpc_com_transport_transmit</title>
<polygon fill="white" stroke="none" points="-4,4 -4,-24 467,-24 467,4 -4,4"/>
<!-- Node1 -->
<g id="node1" class="node"><title>Node1</title>
<polygon fill="#bfbfbf" stroke="black" points="0,-0.5 0,-19.5 138,-19.5 138,-0.5 0,-0.5"/>
<text text-anchor="middle" x="69" y="-7.5" font-family="Helvetica,sans-Serif" font-size="10.00">fpc_com_transport_transmit</text>
</g>
<!-- Node2 -->
<g id="node2" class="node"><title>Node2</title>
<g id="a_node2"><a xlink:href="fpc__com__link_8h.html#a43a8a308255ea41e7b7cdefd63a90d14" target="_top" xlink:title="Sends a packet over the physical link in blocking mode. ">
<polygon fill="white" stroke="black" points="174,-0.5 174,-19.5 289,-19.5 289,-0.5 174,-0.5"/>
<text text-anchor="middle" x="231.5" y="-7.5" font-family="Helvetica,sans-Serif" font-size="10.00">fpc_com_link_transmit</text>
</a>
</g>
</g>
<!-- Node1&#45;&gt;Node2 -->
<g id="edge1" class="edge"><title>Node1&#45;&gt;Node2</title>
<path fill="none" stroke="midnightblue" d="M138.066,-10C146.57,-10 155.261,-10 163.744,-10"/>
<polygon fill="midnightblue" stroke="midnightblue" points="163.963,-13.5001 173.963,-10 163.963,-6.5001 163.963,-13.5001"/>
</g>
<!-- Node3 -->
<g id="node3" class="node"><title>Node3</title>
<g id="a_node3"><a xlink:href="fpc__com__link_8c.html#a3e60e21a5ac4ad4881e4929de2f3c2f4" target="_top" xlink:title="Returns the overhead of the layer. ">
<polygon fill="white" stroke="black" points="325,-0.5 325,-19.5 463,-19.5 463,-0.5 325,-0.5"/>
<text text-anchor="middle" x="394" y="-7.5" font-family="Helvetica,sans-Serif" font-size="10.00">fpc_com_link_get_overhead</text>
</a>
</g>
</g>
<!-- Node2&#45;&gt;Node3 -->
<g id="edge2" class="edge"><title>Node2&#45;&gt;Node3</title>
<path fill="none" stroke="midnightblue" d="M289.086,-10C297.389,-10 306.064,-10 314.708,-10"/>
<polygon fill="midnightblue" stroke="midnightblue" points="314.817,-13.5001 324.817,-10 314.817,-6.5001 314.817,-13.5001"/>
</g>
</g>
</svg>
