<?xml version="1.0" encoding="UTF-8" standalone="no"?>
<!DOCTYPE svg PUBLIC "-//W3C//DTD SVG 1.1//EN"
 "http://www.w3.org/Graphics/SVG/1.1/DTD/svg11.dtd">
<!-- Generated by graphviz version 2.38.0 (20140413.2041)
 -->
<!-- Title: inc/fpc_com_link.h Pages: 1 -->
<svg width="248pt" height="84pt"
 viewBox="0.00 0.00 247.50 84.00" xmlns="http://www.w3.org/2000/svg" xmlns:xlink="http://www.w3.org/1999/xlink">
<g id="graph0" class="graph" transform="scale(1 1) rotate(0) translate(4 80)">
<title>inc/fpc_com_link.h</title>
<polygon fill="white" stroke="none" points="-4,4 -4,-80 243.5,-80 243.5,4 -4,4"/>
<!-- Node1 -->
<g id="node1" class="node"><title>Node1</title>
<polygon fill="#bfbfbf" stroke="black" points="64.5,-56.5 64.5,-75.5 162.5,-75.5 162.5,-56.5 64.5,-56.5"/>
<text text-anchor="middle" x="113.5" y="-63.5" font-family="Helvetica,sans-Serif" font-size="10.00">inc/fpc_com_link.h</text>
</g>
<!-- Node2 -->
<g id="node2" class="node"><title>Node2</title>
<g id="a_node2"><a xlink:href="fpc__com__link_8c.html" target="_top" xlink:title="Communication link layer implementation. ">
<polygon fill="white" stroke="black" points="0,-0.5 0,-19.5 99,-19.5 99,-0.5 0,-0.5"/>
<text text-anchor="middle" x="49.5" y="-7.5" font-family="Helvetica,sans-Serif" font-size="10.00">src/fpc_com_link.c</text>
</a>
</g>
</g>
<!-- Node1&#45;&gt;Node2 -->
<g id="edge1" class="edge"><title>Node1&#45;&gt;Node2</title>
<path fill="none" stroke="midnightblue" d="M95.5085,-49.8197C84.0424,-40.1452 69.5867,-27.9481 59.9698,-19.8339"/>
<polygon fill="midnightblue" stroke="midnightblue" points="93.3173,-52.5502 103.217,-56.324 97.8314,-47.2002 93.3173,-52.5502"/>
</g>
<!-- Node3 -->
<g id="node3" class="node"><title>Node3</title>
<g id="a_node3"><a xlink:href="fpc__com__transport_8c.html" target="_top" xlink:title="Communication transport layer implementation. ">
<polygon fill="white" stroke="black" points="117.5,-0.5 117.5,-19.5 239.5,-19.5 239.5,-0.5 117.5,-0.5"/>
<text text-anchor="middle" x="178.5" y="-7.5" font-family="Helvetica,sans-Serif" font-size="10.00">src/fpc_com_transport.c</text>
</a>
</g>
</g>
<!-- Node1&#45;&gt;Node3 -->
<g id="edge2" class="edge"><title>Node1&#45;&gt;Node3</title>
<path fill="none" stroke="midnightblue" d="M131.773,-49.8197C143.418,-40.1452 158.099,-27.9481 167.867,-19.8339"/>
<polygon fill="midnightblue" stroke="midnightblue" points="129.399,-47.2416 123.943,-56.324 133.872,-52.6259 129.399,-47.2416"/>
</g>
</g>
</svg>
