<?xml version="1.0" encoding="UTF-8" standalone="no"?>
<!DOCTYPE svg PUBLIC "-//W3C//DTD SVG 1.1//EN"
 "http://www.w3.org/Graphics/SVG/1.1/DTD/svg11.dtd">
<!-- Generated by graphviz version 2.38.0 (20140413.2041)
 -->
<!-- Title: inc/fpc_hcp.h Pages: 1 -->
<svg width="385pt" height="196pt"
 viewBox="0.00 0.00 385.04 196.00" xmlns="http://www.w3.org/2000/svg" xmlns:xlink="http://www.w3.org/1999/xlink">
<g id="graph0" class="graph" transform="scale(1 1) rotate(0) translate(4 192)">
<title>inc/fpc_hcp.h</title>
<polygon fill="white" stroke="none" points="-4,4 -4,-192 381.037,-192 381.037,4 -4,4"/>
<!-- Node1 -->
<g id="node1" class="node"><title>Node1</title>
<polygon fill="#bfbfbf" stroke="black" points="96.5,-168.5 96.5,-187.5 171.5,-187.5 171.5,-168.5 96.5,-168.5"/>
<text text-anchor="middle" x="134" y="-175.5" font-family="Helvetica,sans-Serif" font-size="10.00">inc/fpc_hcp.h</text>
</g>
<!-- Node2 -->
<g id="node2" class="node"><title>Node2</title>
<polygon fill="white" stroke="#bfbfbf" points="0,-0.5 0,-19.5 56,-19.5 56,-0.5 0,-0.5"/>
<text text-anchor="middle" x="28" y="-7.5" font-family="Helvetica,sans-Serif" font-size="10.00">stdbool.h</text>
</g>
<!-- Node1&#45;&gt;Node2 -->
<g id="edge1" class="edge"><title>Node1&#45;&gt;Node2</title>
<path fill="none" stroke="midnightblue" d="M114.373,-168.373C84.6718,-154.092 29.3992,-122.433 7,-76 -0.463266,-60.529 7.24146,-41.7567 15.3394,-28.3715"/>
<polygon fill="midnightblue" stroke="midnightblue" points="18.4801,-29.9687 21.0942,-19.7014 12.6479,-26.0975 18.4801,-29.9687"/>
</g>
<!-- Node3 -->
<g id="node3" class="node"><title>Node3</title>
<polygon fill="white" stroke="#bfbfbf" points="272.5,-0.5 272.5,-19.5 321.5,-19.5 321.5,-0.5 272.5,-0.5"/>
<text text-anchor="middle" x="297" y="-7.5" font-family="Helvetica,sans-Serif" font-size="10.00">stdint.h</text>
</g>
<!-- Node1&#45;&gt;Node3 -->
<g id="edge2" class="edge"><title>Node1&#45;&gt;Node3</title>
<path fill="none" stroke="midnightblue" d="M171.92,-173.57C227.126,-166.306 327.945,-143.953 373,-76 387.697,-53.8334 357.592,-34.9208 331.04,-23.305"/>
<polygon fill="midnightblue" stroke="midnightblue" points="332.087,-19.9504 321.508,-19.3632 329.412,-26.4191 332.087,-19.9504"/>
</g>
<!-- Node4 -->
<g id="node4" class="node"><title>Node4</title>
<g id="a_node4"><a xlink:href="fpc__hcp__common_8h.html" target="_top" xlink:title="Host Communication Protocol common type definitions. ">
<polygon fill="white" stroke="black" points="16,-56.5 16,-75.5 118,-75.5 118,-56.5 16,-56.5"/>
<text text-anchor="middle" x="67" y="-63.5" font-family="Helvetica,sans-Serif" font-size="10.00">fpc_hcp_common.h</text>
</a>
</g>
</g>
<!-- Node1&#45;&gt;Node4 -->
<g id="edge3" class="edge"><title>Node1&#45;&gt;Node4</title>
<path fill="none" stroke="midnightblue" d="M128.743,-168.368C117.735,-150.296 92.0802,-108.176 77.5418,-84.3074"/>
<polygon fill="midnightblue" stroke="midnightblue" points="80.4241,-82.3112 72.233,-75.5914 74.4458,-85.9526 80.4241,-82.3112"/>
</g>
<!-- Node5 -->
<g id="node5" class="node"><title>Node5</title>
<g id="a_node5"><a xlink:href="fpc__com__chain_8h.html" target="_top" xlink:title="Communication chain type definitions. ">
<polygon fill="white" stroke="black" points="136.5,-112.5 136.5,-131.5 227.5,-131.5 227.5,-112.5 136.5,-112.5"/>
<text text-anchor="middle" x="182" y="-119.5" font-family="Helvetica,sans-Serif" font-size="10.00">fpc_com_chain.h</text>
</a>
</g>
</g>
<!-- Node1&#45;&gt;Node5 -->
<g id="edge6" class="edge"><title>Node1&#45;&gt;Node5</title>
<path fill="none" stroke="midnightblue" d="M141.926,-168.083C148.846,-160.298 159.065,-148.801 167.452,-139.367"/>
<polygon fill="midnightblue" stroke="midnightblue" points="170.194,-141.55 174.221,-131.751 164.962,-136.9 170.194,-141.55"/>
</g>
<!-- Node4&#45;&gt;Node2 -->
<g id="edge5" class="edge"><title>Node4&#45;&gt;Node2</title>
<path fill="none" stroke="midnightblue" d="M60.5599,-56.083C55.0511,-48.4554 46.9688,-37.2645 40.235,-27.9408"/>
<polygon fill="midnightblue" stroke="midnightblue" points="43.0126,-25.8087 34.3202,-19.7511 37.3378,-29.9071 43.0126,-25.8087"/>
</g>
<!-- Node4&#45;&gt;Node3 -->
<g id="edge4" class="edge"><title>Node4&#45;&gt;Node3</title>
<path fill="none" stroke="midnightblue" d="M103.444,-56.4435C147.092,-46.1957 219.661,-29.1578 262.451,-19.1115"/>
<polygon fill="midnightblue" stroke="midnightblue" points="263.46,-22.4698 272.395,-16.7767 261.86,-15.6551 263.46,-22.4698"/>
</g>
<!-- Node5&#45;&gt;Node3 -->
<g id="edge7" class="edge"><title>Node5&#45;&gt;Node3</title>
<path fill="none" stroke="midnightblue" d="M227.877,-115.558C274.261,-109.001 341.286,-96.2666 357,-76 371.64,-57.1197 346.33,-37.1828 324.218,-24.4456"/>
<polygon fill="midnightblue" stroke="midnightblue" points="325.827,-21.3364 315.374,-19.6124 322.471,-27.4791 325.827,-21.3364"/>
</g>
<!-- Node5&#45;&gt;Node4 -->
<g id="edge10" class="edge"><title>Node5&#45;&gt;Node4</title>
<path fill="none" stroke="midnightblue" d="M163.778,-112.444C145.104,-103.675 115.844,-89.9355 94.3826,-79.8579"/>
<polygon fill="midnightblue" stroke="midnightblue" points="95.6763,-76.5988 85.1368,-75.5164 92.7009,-82.935 95.6763,-76.5988"/>
</g>
<!-- Node6 -->
<g id="node6" class="node"><title>Node6</title>
<g id="a_node6"><a xlink:href="fpc__com__result_8h.html" target="_top" xlink:title="Communication result type definitions. ">
<polygon fill="white" stroke="black" points="136,-56.5 136,-75.5 228,-75.5 228,-56.5 136,-56.5"/>
<text text-anchor="middle" x="182" y="-63.5" font-family="Helvetica,sans-Serif" font-size="10.00">fpc_com_result.h</text>
</a>
</g>
</g>
<!-- Node5&#45;&gt;Node6 -->
<g id="edge8" class="edge"><title>Node5&#45;&gt;Node6</title>
<path fill="none" stroke="midnightblue" d="M182,-112.083C182,-105.006 182,-94.8611 182,-85.9865"/>
<polygon fill="midnightblue" stroke="midnightblue" points="185.5,-85.751 182,-75.7511 178.5,-85.7511 185.5,-85.751"/>
</g>
<!-- Node7 -->
<g id="node7" class="node"><title>Node7</title>
<g id="a_node7"><a xlink:href="fpc__com__packets_8h.html" target="_top" xlink:title="Communication packet type definitions. ">
<polygon fill="white" stroke="black" points="246,-56.5 246,-75.5 348,-75.5 348,-56.5 246,-56.5"/>
<text text-anchor="middle" x="297" y="-63.5" font-family="Helvetica,sans-Serif" font-size="10.00">fpc_com_packets.h</text>
</a>
</g>
</g>
<!-- Node5&#45;&gt;Node7 -->
<g id="edge11" class="edge"><title>Node5&#45;&gt;Node7</title>
<path fill="none" stroke="midnightblue" d="M200.222,-112.444C218.896,-103.675 248.156,-89.9355 269.617,-79.8579"/>
<polygon fill="midnightblue" stroke="midnightblue" points="271.299,-82.935 278.863,-75.5164 268.324,-76.5988 271.299,-82.935"/>
</g>
<!-- Node6&#45;&gt;Node3 -->
<g id="edge9" class="edge"><title>Node6&#45;&gt;Node3</title>
<path fill="none" stroke="midnightblue" d="M200.222,-56.4435C218.896,-47.6751 248.156,-33.9355 269.617,-23.8579"/>
<polygon fill="midnightblue" stroke="midnightblue" points="271.299,-26.935 278.863,-19.5164 268.324,-20.5988 271.299,-26.935"/>
</g>
<!-- Node7&#45;&gt;Node3 -->
<g id="edge12" class="edge"><title>Node7&#45;&gt;Node3</title>
<path fill="none" stroke="midnightblue" d="M297,-56.083C297,-49.0059 297,-38.8611 297,-29.9865"/>
<polygon fill="midnightblue" stroke="midnightblue" points="300.5,-29.751 297,-19.7511 293.5,-29.7511 300.5,-29.751"/>
</g>
</g>
</svg>
