<?xml version="1.0" encoding="UTF-8" standalone="no"?>
<!DOCTYPE svg PUBLIC "-//W3C//DTD SVG 1.1//EN"
 "http://www.w3.org/Graphics/SVG/1.1/DTD/svg11.dtd">
<!-- Generated by graphviz version 2.38.0 (20140413.2041)
 -->
<!-- Title: fpc_com_chain_private Pages: 1 -->
<svg width="125pt" height="162pt"
 viewBox="0.00 0.00 125.00 162.00" xmlns="http://www.w3.org/2000/svg" xmlns:xlink="http://www.w3.org/1999/xlink">
<g id="graph0" class="graph" transform="scale(1 1) rotate(0) translate(4 158)">
<title>fpc_com_chain_private</title>
<polygon fill="white" stroke="none" points="-4,4 -4,-158 121,-158 121,4 -4,4"/>
<!-- Node1 -->
<g id="node1" class="node"><title>Node1</title>
<polygon fill="#bfbfbf" stroke="black" points="0,-0.5 0,-19.5 117,-19.5 117,-0.5 0,-0.5"/>
<text text-anchor="middle" x="58.5" y="-7.5" font-family="Helvetica,sans-Serif" font-size="10.00">fpc_com_chain_private</text>
</g>
<!-- Node2 -->
<g id="node2" class="node"><title>Node2</title>
<g id="a_node2"><a xlink:href="structfpc__hcp__packet.html" target="_top" xlink:title="Application Command Packet. ">
<polygon fill="white" stroke="black" points="15.5,-67.5 15.5,-86.5 101.5,-86.5 101.5,-67.5 15.5,-67.5"/>
<text text-anchor="middle" x="58.5" y="-74.5" font-family="Helvetica,sans-Serif" font-size="10.00">fpc_hcp_packet</text>
</a>
</g>
</g>
<!-- Node2&#45;&gt;Node1 -->
<g id="edge1" class="edge"><title>Node2&#45;&gt;Node1</title>
<path fill="none" stroke="#9a32cd" stroke-dasharray="5,2" d="M58.5,-57.037C58.5,-44.6703 58.5,-29.1198 58.5,-19.6273"/>
<polygon fill="#9a32cd" stroke="#9a32cd" points="55.0001,-57.2338 58.5,-67.2338 62.0001,-57.2338 55.0001,-57.2338"/>
<text text-anchor="middle" x="85.5" y="-41" font-family="Helvetica,sans-Serif" font-size="10.00"> hcp_packet</text>
</g>
<!-- Node3 -->
<g id="node3" class="node"><title>Node3</title>
<g id="a_node3"><a xlink:href="structfpc__hcp__arg__data.html" target="_top" xlink:title="Command Argument. ">
<polygon fill="white" stroke="black" points="11.5,-134.5 11.5,-153.5 105.5,-153.5 105.5,-134.5 11.5,-134.5"/>
<text text-anchor="middle" x="58.5" y="-141.5" font-family="Helvetica,sans-Serif" font-size="10.00">fpc_hcp_arg_data</text>
</a>
</g>
</g>
<!-- Node3&#45;&gt;Node2 -->
<g id="edge2" class="edge"><title>Node3&#45;&gt;Node2</title>
<path fill="none" stroke="#9a32cd" stroke-dasharray="5,2" d="M58.5,-124.037C58.5,-111.67 58.5,-96.1198 58.5,-86.6273"/>
<polygon fill="#9a32cd" stroke="#9a32cd" points="55.0001,-124.234 58.5,-134.234 62.0001,-124.234 55.0001,-124.234"/>
<text text-anchor="middle" x="83" y="-108" font-family="Helvetica,sans-Serif" font-size="10.00"> arguments</text>
</g>
</g>
</svg>
